<mxfile host="app.diagrams.net" agent="Mozilla/5.0 (Macintosh; Intel Mac OS X 10_15_7) AppleWebKit/537.36 (KHTML, like Gecko) Chrome/140.0.0.0 Safari/537.36" version="28.2.5">
  <diagram id="-Jylc1kf2nl2Jxtt9iz9" name="Page-1">
    <mxGraphModel dx="668" dy="2097" grid="1" gridSize="10" guides="1" tooltips="1" connect="1" arrows="1" fold="1" page="1" pageScale="1" pageWidth="50" pageHeight="50" math="0" shadow="1">
      <root>
        <mxCell id="0" />
        <mxCell id="1" parent="0" />
        <mxCell id="C_XI61WrGr2y75dWy_v_-46" value="&lt;div style=&quot;&quot;&gt;&lt;span style=&quot;background-color: transparent; color: light-dark(rgb(0, 0, 0), rgb(255, 255, 255));&quot;&gt;{&lt;/span&gt;&lt;/div&gt;&lt;div style=&quot;&quot;&gt;&lt;span style=&quot;background-color: transparent; color: light-dark(rgb(0, 0, 0), rgb(255, 255, 255));&quot;&gt;&lt;span style=&quot;white-space: pre;&quot;&gt;&#x9;&lt;/span&gt;&quot;Regions&quot;: {&lt;/span&gt;&lt;/div&gt;&lt;div style=&quot;&quot;&gt;&lt;span style=&quot;background-color: transparent; color: light-dark(rgb(0, 0, 0), rgb(255, 255, 255)); white-space: pre;&quot;&gt;&#x9;&lt;span style=&quot;white-space: pre;&quot;&gt;&#x9;&lt;/span&gt;&lt;/span&gt;&lt;span style=&quot;background-color: transparent; color: light-dark(rgb(0, 0, 0), rgb(255, 255, 255));&quot;&gt;&quot;RegionId1&quot; : &quot;Unique identifier for each region/cell&quot;,&lt;/span&gt;&lt;/div&gt;&lt;div style=&quot;&quot;&gt;&lt;span style=&quot;background-color: transparent; color: light-dark(rgb(0, 0, 0), rgb(255, 255, 255));&quot;&gt;&lt;span style=&quot;white-space: pre;&quot;&gt;&#x9;&lt;/span&gt;&lt;span style=&quot;white-space: pre;&quot;&gt;&#x9;&lt;/span&gt;&lt;/span&gt;&lt;span style=&quot;background-color: transparent; color: light-dark(rgb(0, 0, 0), rgb(255, 255, 255));&quot;&gt;&quot;Locations1&quot;: {&lt;/span&gt;&lt;/div&gt;&lt;div style=&quot;&quot;&gt;&lt;span style=&quot;background-color: transparent; color: light-dark(rgb(0, 0, 0), rgb(255, 255, 255));&quot;&gt;&lt;span style=&quot;white-space: pre;&quot;&gt;&#x9;&lt;/span&gt;&lt;span style=&quot;white-space: pre;&quot;&gt;&#x9;&lt;/span&gt;&lt;span style=&quot;white-space: pre;&quot;&gt;&#x9;&lt;/span&gt;Driver1:{&lt;/span&gt;&lt;/div&gt;&lt;div style=&quot;&quot;&gt;&lt;span style=&quot;background-color: transparent; color: light-dark(rgb(0, 0, 0), rgb(255, 255, 255));&quot;&gt;&lt;span style=&quot;white-space: pre;&quot;&gt;&#x9;&lt;/span&gt;&lt;span style=&quot;white-space: pre;&quot;&gt;&#x9;&lt;/span&gt;&lt;span style=&quot;white-space: pre;&quot;&gt;&#x9;&lt;/span&gt;&lt;span style=&quot;white-space: pre;&quot;&gt;&#x9;&lt;/span&gt;&quot;DriverName&quot;:&quot;Name of the Cab Driver&quot;,&lt;/span&gt;&lt;/div&gt;&lt;div style=&quot;&quot;&gt;&lt;span style=&quot;background-color: transparent; color: light-dark(rgb(0, 0, 0), rgb(255, 255, 255));&quot;&gt;&lt;span style=&quot;white-space: pre;&quot;&gt;&#x9;&lt;/span&gt;&lt;span style=&quot;white-space: pre;&quot;&gt;&#x9;&lt;/span&gt;&lt;span style=&quot;white-space: pre;&quot;&gt;&#x9;&lt;/span&gt;&lt;span style=&quot;white-space: pre;&quot;&gt;&#x9;&lt;/span&gt;&quot;DriverLocation&quot;:&quot;Driver location details&quot;,&lt;/span&gt;&lt;/div&gt;&lt;div style=&quot;&quot;&gt;&lt;span style=&quot;background-color: transparent; color: light-dark(rgb(0, 0, 0), rgb(255, 255, 255));&quot;&gt;&lt;span style=&quot;white-space: pre;&quot;&gt;&#x9;&lt;/span&gt;&lt;span style=&quot;white-space: pre;&quot;&gt;&#x9;&lt;/span&gt;&lt;span style=&quot;white-space: pre;&quot;&gt;&#x9;&lt;/span&gt;&lt;span style=&quot;white-space: pre;&quot;&gt;&#x9;&lt;/span&gt;&quot;DriverID&quot;:&quot;Unique identifier for the driver&quot;,&lt;br&gt;&lt;/span&gt;&lt;/div&gt;&lt;div style=&quot;&quot;&gt;&lt;span style=&quot;background-color: transparent; color: light-dark(rgb(0, 0, 0), rgb(255, 255, 255));&quot;&gt;&lt;span style=&quot;white-space: pre;&quot;&gt;&#x9;&lt;/span&gt;&lt;span style=&quot;white-space: pre;&quot;&gt;&#x9;&lt;/span&gt;&lt;span style=&quot;white-space: pre;&quot;&gt;&#x9;&lt;/span&gt;&lt;span style=&quot;white-space: pre;&quot;&gt;&#x9;&lt;/span&gt;&quot;DrivingStatus&quot;:&quot;Status of driving&quot;&lt;/span&gt;&lt;/div&gt;&lt;div style=&quot;&quot;&gt;&lt;span style=&quot;background-color: transparent; color: light-dark(rgb(0, 0, 0), rgb(255, 255, 255));&quot;&gt;&lt;span style=&quot;white-space: pre;&quot;&gt;&#x9;&lt;/span&gt;&lt;span style=&quot;white-space: pre;&quot;&gt;&#x9;&lt;/span&gt;&lt;span style=&quot;white-space: pre;&quot;&gt;&#x9;&lt;/span&gt;}&lt;/span&gt;&lt;/div&gt;&lt;div style=&quot;&quot;&gt;&lt;span style=&quot;background-color: transparent; color: light-dark(rgb(0, 0, 0), rgb(255, 255, 255));&quot;&gt;&lt;span style=&quot;white-space: pre;&quot;&gt;&#x9;&lt;/span&gt;&lt;span style=&quot;white-space: pre;&quot;&gt;&#x9;&lt;/span&gt;&lt;span style=&quot;white-space: pre;&quot;&gt;&#x9;&lt;/span&gt;...&lt;br&gt;&lt;/span&gt;&lt;/div&gt;&lt;div style=&quot;&quot;&gt;&lt;span style=&quot;background-color: transparent; color: light-dark(rgb(0, 0, 0), rgb(255, 255, 255));&quot;&gt;&lt;span style=&quot;white-space: pre;&quot;&gt;&#x9;&lt;/span&gt;&lt;span style=&quot;white-space: pre;&quot;&gt;&#x9;&lt;/span&gt;&lt;span style=&quot;white-space: pre;&quot;&gt;&#x9;&lt;/span&gt;...&lt;br&gt;&lt;/span&gt;&lt;/div&gt;&lt;div style=&quot;&quot;&gt;&lt;span style=&quot;background-color: transparent; color: light-dark(rgb(0, 0, 0), rgb(255, 255, 255));&quot;&gt;&lt;span style=&quot;white-space: pre;&quot;&gt;&#x9;&lt;/span&gt;&lt;span style=&quot;white-space: pre;&quot;&gt;&#x9;&lt;/span&gt;}&lt;/span&gt;&lt;/div&gt;&lt;div style=&quot;&quot;&gt;&lt;span style=&quot;white-space: pre;&quot;&gt;&#x9;&lt;/span&gt;&lt;span style=&quot;white-space: pre;&quot;&gt;&#x9;&lt;/span&gt;...&lt;br&gt;&lt;/div&gt;&lt;div style=&quot;&quot;&gt;&lt;span style=&quot;white-space: pre;&quot;&gt;&#x9;&lt;/span&gt;&lt;span style=&quot;white-space: pre;&quot;&gt;&#x9;&lt;/span&gt;...&lt;/div&gt;&lt;div style=&quot;&quot;&gt;&lt;span style=&quot;background-color: transparent; color: light-dark(rgb(0, 0, 0), rgb(255, 255, 255));&quot;&gt;&lt;span style=&quot;white-space: pre;&quot;&gt;&#x9;&lt;/span&gt;}&lt;/span&gt;&lt;/div&gt;&lt;div style=&quot;&quot;&gt;&lt;span style=&quot;background-color: transparent; color: light-dark(rgb(0, 0, 0), rgb(255, 255, 255));&quot;&gt;&lt;span style=&quot;white-space: pre;&quot;&gt;&#x9;&lt;/span&gt;&quot;UserId&quot; : &quot;Identifier for the user who created these regions&quot;,&lt;/span&gt;&lt;/div&gt;&lt;div style=&quot;&quot;&gt;&lt;span style=&quot;background-color: transparent; color: light-dark(rgb(0, 0, 0), rgb(255, 255, 255));&quot;&gt;&lt;span style=&quot;white-space: pre;&quot;&gt;&#x9;&lt;/span&gt;&quot;CreatedAt&quot; : &quot;Timestamp when the regions were created&quot;&lt;/span&gt;&lt;/div&gt;&lt;div style=&quot;&quot;&gt;&lt;span style=&quot;background-color: transparent; color: light-dark(rgb(0, 0, 0), rgb(255, 255, 255));&quot;&gt;}&lt;/span&gt;&lt;/div&gt;" style="rounded=1;whiteSpace=wrap;html=1;align=left;fillColor=#fad7ac;strokeColor=#b46504;shadow=1;textShadow=1;spacingLeft=11;fontFamily=Verdana;" parent="1" vertex="1">
          <mxGeometry x="1793" y="-900" width="437" height="335" as="geometry" />
        </mxCell>
        <mxCell id="C_XI61WrGr2y75dWy_v_-52" style="edgeStyle=orthogonalEdgeStyle;rounded=0;orthogonalLoop=1;jettySize=auto;html=1;exitX=0.556;exitY=0;exitDx=0;exitDy=0;curved=1;exitPerimeter=0;shadow=1;fontFamily=Verdana;entryX=0;entryY=0.5;entryDx=0;entryDy=0;" parent="1" source="C_XI61WrGr2y75dWy_v_-51" target="C_XI61WrGr2y75dWy_v_-46" edge="1">
          <mxGeometry relative="1" as="geometry">
            <mxPoint x="1760" y="-680" as="targetPoint" />
            <Array as="points">
              <mxPoint x="1567" y="-770" />
              <mxPoint x="1660" y="-770" />
              <mxPoint x="1660" y="-732" />
              <mxPoint x="1760" y="-732" />
            </Array>
          </mxGeometry>
        </mxCell>
        <mxCell id="ecF1DL68dRhMWlCplkA8-136" style="edgeStyle=orthogonalEdgeStyle;rounded=0;orthogonalLoop=1;jettySize=auto;html=1;entryX=0;entryY=0.5;entryDx=0;entryDy=0;strokeWidth=2;shadow=1;textShadow=1;" edge="1" parent="1">
          <mxGeometry relative="1" as="geometry">
            <mxPoint x="4247.006146110307" y="2730.7012500158307" as="targetPoint" />
          </mxGeometry>
        </mxCell>
        <mxCell id="ecF1DL68dRhMWlCplkA8-197" style="edgeStyle=orthogonalEdgeStyle;rounded=0;orthogonalLoop=1;jettySize=auto;html=1;entryX=0;entryY=0.5;entryDx=0;entryDy=0;strokeWidth=2;shadow=1;textShadow=1;" edge="1" parent="1">
          <mxGeometry relative="1" as="geometry">
            <mxPoint x="4218.561578208255" y="612.5061979109546" as="targetPoint" />
          </mxGeometry>
        </mxCell>
        <mxCell id="ecF1DL68dRhMWlCplkA8-204" style="edgeStyle=orthogonalEdgeStyle;rounded=0;orthogonalLoop=1;jettySize=auto;html=1;entryX=0;entryY=0.5;entryDx=0;entryDy=0;strokeWidth=2;shadow=1;textShadow=1;" edge="1" parent="1">
          <mxGeometry relative="1" as="geometry">
            <mxPoint x="3347.302366298654" y="3185.3088209259154" as="targetPoint" />
          </mxGeometry>
        </mxCell>
        <mxCell id="ecF1DL68dRhMWlCplkA8-228" value="&lt;span style=&quot;font-size: 13px;&quot;&gt;Driver Finder DB&lt;/span&gt;" style="points=[];aspect=fixed;html=1;align=center;shadow=0;dashed=0;fillColor=#FF6A00;strokeColor=none;shape=mxgraph.alibaba_cloud.redis_kvstore;labelPosition=center;verticalLabelPosition=bottom;verticalAlign=top;fontFamily=Verdana;fontStyle=1;fontSize=16;textShadow=1;" vertex="1" parent="1">
          <mxGeometry x="1340" y="-825" width="192.46" height="151.77" as="geometry" />
        </mxCell>
        <mxCell id="C_XI61WrGr2y75dWy_v_-51" value="" style="shape=image;verticalLabelPosition=bottom;labelBackgroundColor=default;verticalAlign=top;aspect=fixed;imageAspect=0;image=data:image/png,iVBORw0KGgoAAAANSUhEUgAAAgAAAAIACAYAAAD0eNT6AAAAAXNSR0IArs4c6QAAAERlWElmTU0AKgAAAAgAAYdpAAQAAAABAAAAGgAAAAAAA6ABAAMAAAABAAEAAKACAAQAAAABAAACAKADAAQAAAABAAACAAAAAAAL+LWFAABAAElEQVR4Aey9CZxcxXX/W7e3menZV+37hiRASKNBCAwIAVrAxltkx4AETt7j848TZ30viRPnPf75xM7qbHacPBLbIDBe5CVmk9gVMAhtgMDatxlppJFm36ent/vOaanFSJre6lbdvt39q49G3X2XWr7VfevUqVPnGAIJBHKEQOMnHvF7jIHy0Ki73OVylRuGUR4RZoUratB7UR4V0dgxERXlhhAVJh2jpsWOmaZJ780KIYzYMTruoWsGTPqj9/zXf+HVHDAN14BhmrHjdL7fZdJ1LjpOx1ymO/Ya9ZgDRYbRH41EBnaumDcoHn00SvcjgQAIgEDOEKBnIBIIOIfALff9RnkoHFpgmq4FNGAviJpigXCJBYYp5lEt/c6p6WU1ocHfbCbh4jD/mUb0sDCMw9Gg5/B7L3/37GVX4gMIgAAIOIQABACHdEQhVWPDhg3uE4P+mYYZpUGeBnqXuUCY9CcM+hOT8ozFIP3ISDDgPzMmIAjDdXg0HDn6wUtPDuVZW9EcEACBHCIAASCHOivXqhqbzQfD15o0kxcu48JsngZ5Q5hzqS2+XGuP4vrS6oJoFQYJBlHWGlwQDjwifGDn1u+3Ki4L2YEACIDAVQQgAFyFBAdkCazcsKEkPOC/mQaz1fTFWk0j3HLKyyObX8HeZ4iTpA15jQSn10Qk+vreF59qK1gWaDgIgIA2AhAAtKHN/4wbGx/xivrAChcN+KYwVlOLb6K/ovxvue0tPChM4zVDRF/zmL7tO178TrftNUCBIAACeUcAAkDedam+BvHafctQ8VIyzKMZvsEz/I9RaaX6SkTO4xAg7GKfMMVrJgkFxUXuN9565ru8YwEJBEAABDIiAAEgI1wFd7HReM/D17pEdLVJgz61/jb6qyo4Cs5ucJh+xHtIKnjNiIrXPRUjb+3YsmXE2VVG7UAABJxAAAKAE3rBQXVovOuRSsMb+CwN+Gtpb/0dVLV6B1UPVUlNYJQueYcEgldpl8WP92x7incgIIEACIDAVQQgAFyFpPAOrFq1ytPvn76OZpAbadC/jwgUFx6FPG2xIXbRcsGTpif0w73P/qAzT1uJZoEACEgQgAAgAS1fbll270ONbjO6idaSv0Btwkw/Xzp2/HaE6PBWclC0udeseO7Y1m+ypgAJBECggAlAACiwzm9a88VpUVfkAZrpb6KmLyyw5qO5Fwj0klOiH5MTps17tj7xFqCAAAgUJgEIAAXQ7+yQJxgMfZa26m0ixzOrqMno9wLo9/SaaJ4grcCT0Uj0qXdffOpYevfgKhAAgXwggIEgH3pxnDbwlr3modK7hRndSAZhn6JLnOpHf5za41BWCJjibQp69GTQiPzow+ef7slKHVAoCICAbQQgANiG2p6Cblz74JKo4eKZ/v1U4kR7SkUpeUYgSN+f50wz+qRo9z+/d+9jbD+ABAIgkGcEIADkSYc2rXvoTnId++f04L4jT5qEZjiDQCtpkP7OVzbyX/Av4IwOQS1AQBUBCACqSGYpn8a1D93rcplfpYc0u+FFAgFNBIzzQkT/cWQk8O3927cMaioE2YIACNhIAAKAjbCVFfXoo67lO098hvL7c/q7QVm+yAgEUhPoJr8C/zrqDv8r7ARSw8IVIOBkAhAAnNw7V9SNDftODhXfT4FhvkKnsIXvCj74aCuBAdpK+m+jYfOfPnjpyXZbS0ZhIAACSghAAFCCUW8mizds8PkHix8iNf+f0g6+2XpLQ+4gkBGBYfpe/qfPLf5+x3Obz2R0Jy4GARDIKgEIAFnFn7zwlRs2lAQH/P+nYZj/N105NfnVODuWgEHTUxf/uVz0F3+9+N5w0dZ3WtGmsIbRaPTCqxkVEXpv0rHYKwVDQMqIAO8c+J4rbP7trpeePJnRnbgYBEAgKwQgAGQFe/JC2XFPIBT+kkuIP6RhqCH51fl/lgdzn9crfD6PKKJXt9t92cDujg/yNLDHB3u+x0oySQCI8l9cQIi9krAw5hgLCqFQSIwGQyJIr5FI1EqR+XJvmLwMPm1G3H+996XHD+VLo9AOEMhHAtaekvlIJIttuu7e+6uLIp7fpbHr92jgr85iVbJStNfjoYGe/nw02McGfG9swPfSsVxILACwIBAXCMj7YuxzMBQWLFAUWIqSEPZTIxL52q4Xn9pXYG1Hc0EgJwhAAHBCN5FVf+Ou44+4TOPr+T7ws0o+PsjzbP7SYE/vefaer4kFg2AwfJWAEI5E8rXJ8Xax5PM9ikb4J4hGGEeCVxBwBoH8feI6g2/KWtx4z8bltOz8bTLua0p5cQ5e4Ha7hL+kWJSWlNBfcWzAz8FmaKtyhASAoZGAGKY/fmWtQZ6mbkOYf7p765P/Re0rOHVInvYpmpXjBCAAZKkDY+r+qPfr9Cx8hKpAy/35kXiG7y8pig34PPAXF/nyo2E2tSIcZoFg5IJAMBwQoTAtqedX2knN+a09Wze/l1/NQmtAIPcIQACwv8+MpnUbHzIN4++o6Hr7i1dbIhvb+YuLhN9/YYbPA75VAzy1Nczt3EJkP8ACQUxLQAJBniwZ8LrHv5uh4q/ufeWxvtzuIdQeBHKXAAQAG/tu2bpN19MyN6n7xS02Fqu0KB7ceZAvvTjgl9DgjwFfKeKkmbGB4YXlggtagtzeeWCcN0zz/9q9bfNTSRuNkyAAAloIQADQgvXyTFesf6AiIjz/m9T9X6Yz7svPOv8TD/BlpSWisrwsptrPZ2M95/fG5TUMjI6KvoEh0U9/Oawd+B+3iHxp59bvH7i8dfgEAiCgkwAEAJ10Ke/l6x76gjDMb9DbSZqLUp49z+550K8oK6W993ljpqCck1MyHBweEX39g2JgaDgXtx2S9aPxT8FI9C/JtfCQU5iiHiCQzwQgAGjq3WX3blzoihj/lmvheXnPPQ/6leWlsb34mvAgW40E2HlR/+AwaQYGY8sFGovSkfVpWhb4/d3bnvyZjsyRJwiAwEcEIAB8xELJu+vXbCwtcht/Qfuc/pAy9CrJVHMmbLlfUeaPDfxsuY+UPwTYiJAFAV4mYF8EOZNMc5tpuH5n79YnjudMnVFREMgxAhAAFHbYsnUb15L/+f+kLKcpzFZbVmVkyFdZUSbKS/0w5NNG2TkZjwTYXmAwZi/AboxzIAXIbuav9qyY89fi0UdzosI5wBRVBIFLBCAAXEIh/yYWpnew5C8pBw7T62imbMEfW9cnFb+HfOojFR4BdkvMdgKsFRgiuwHHuyk2xeuGy3X/7hceP1d4vYUWg4A+Ao4erPQ1W13OKz++aUo4avyAHqK3qstVfU68ba+uujLmlU997vbn6I25EfYJr89H3gU/+vNSHIEiX9G4x8dex8sewWDwsr9Q7DO77L1w/MLnj64Z+3mUrO/zIbGjoa6ePtFLxoNOFgToQdVuGtEH97zw1Mv5wB1tAAEnEIAAYKEXLqr8n6QsHOvQp4zU+zzws0V/riUepCurqkRNTbWorqm9+FpD72tECbkWzmYK08DZ29Mjuru7RU93D/11X3zfHRMgslk3mbJ5C2F3b7/o6RuIRUCUycOGeyjAkPn1maWBR7ds2cLOhJBAAAQsEIAAIAEvF1T+vHWvrqaSZsPOd8Vb4vdfGNyrLwzuPMDX1NaIysrKWNhfiS7K6i1DQ0Oiu6vrKsGgv7/f0bNshsaOhbr7SBAgYcDBdgJvRMKeL7z38nfPZrWjUTgI5DgBCAAZdqCTVf7ssIe379XSjJ/D6Tox+WmwnzZ9upg6fZqor6+PzeaLiwtj58EFrUEvaQq6xJnWVnG65ZToIkHBiYm3ErI2gLUCDnUw1GEYrk1kF7DNifxQJxDIBQIQADLoJaeq/HngryJrfh74vR5PBi3Sf2lRUVFssJ9Ogz4P/LV1dfoLzaEShskY7/TpUzFh4PSpU6K3t9dRtWe7gN7+AbIT6HdiYCIKqSH+tnT41F9s374976ImOeqLgMrkJQEIAGl0q1NV/rxGXl1RLmqqKxxj0c9GeFOmTI0N9tNmTBcNDQ3YYpjGdyx+yQAtE5w+dZr+TolT9Dc4MBA/ldVXFgR41wAbDDrQn8Bb5Er418mVcGtWIaFwEMgxAhAAUnSYE1X+bh74qypETWVF1l30umkr4eQpUy4M+KTWnzhpUk6u26f4GmTtdG9Pb0wYYIGA/4aHh7NWl3jB/YNDorO7T4zSbgkHpS4zajy098UnnndQnVAVEHA0AQgASbrHiSr/ahr0G2qrsjrIemiZYc7cuWLh4kWxgZ8/I9lDoLOjQxw6eFAcPHAw69oBdirU3tnjJBsB0lOIb4j24j/bu/exHHJ7aM93B6WAwJUEIABcSYQ+O1Hlz9v4JtbXxkLxjlNlWw5NmTpVLLp2sZi/YEFs770thaKQcQmwSp6XCg7u3y+OHjkiQlly88s7BTq6aBskGQw6JdFD7Z2wEf719154usUpdUI9QMCJBCAAXNErK9f+Zk3IFfo5Hb7tilNZ+chR+Bpqq8nIrzwr5VdXV9NMf7FYuGihqKBteUjOI8CD/7EjR8UBEgZ4mSAbDn0Co0Fxrr1LjDjEQRI92HrIcdDn4TjIed9X1Mg5BCAAjOmLpjVfnGa6Iy/SoYVjDmftLVv2N9B+eLtD8fK2vAULrxGLaODnNX2k3CEwODhIWoEDMc1ANrYYsiaANQIO8SEQImlo055tT/4wd3oQNQUB+whAALjIesX6BxZFhJsH/6n24R+/JPbXz+p+O733sTHfrNmzY+v6/MqfkXKbwPnz52OCwKGDh8SIjcaDEfIqeJ5sA9hGwAGJFCLG7+/d9sS/OqAuqAIIOIoABADqjhvXbVoZNcRz9LYmm73D2/rqa8j1LVn425VYrd+4fLm4hlT8heKQxy62TimHnfo0nzwp3tu7V5wi50N2peGRgDjX0e2U3QJf37N185/b1XaUAwK5QKDgBYDGtQ/da7jMH1Nn+bPZYRXkwW9CXY1t+/lryN1u000rxDULF2Z1R0E2mRdi2W1n28Sud94RJ44ft6X5bI8QWxbo7s16jAHDFP81s3zkfyGOgC1dj0JygEBBCwBN6zY+TK7E/pP6KWv72IrIcQ6r+/0l9rjDrSfHPDfSwD9v/nw46MmBH6iuKvJ2wl3v7BRHDh+2xWgwHOZlgW7BPgSymkzxi7KA69e3b388kNV6oHAQcACBghUAlq/f+MdCGH+brT5g971xdT+/150mTZ5EA/9NYvacObqLQv45RKCHIhruJkHg4IEDtszQh4ZHRBvtFuAwxNlK9Ht7Mxos+sTeVx7ry1YdUC4IOIGA/pHHCa28vA7G8ns2fkOYxh9cfti+T+yvf8rEeluM/Nj//oqVN8Uc9tjXQpSUawQ4UuGeXbvE/g9/JThokc7EEQfPtneKQYqDkMX0gRmNrtv74lNtWawDigaBrBIoKAGgsfERr2gY+Z4hjAeyRb281C8mTagT7M5XZ2JLfh74J02erLMY5J1nBDiU8d7de8QH+94XoaBeZ3ocabCdtgxmw28Bdxt5DWz2uF1rdj73+NE860Y0BwTSIlAwAsD1azaWFrmNn9KPfm1aZBRfxGp+duij08Kfy5g7f55YQap+XutHAgFZAoFAILZr4P133xP8XlcaCYyKM+c6srkk0BF1Gevfff6JvbraiHxBwKkECkIAaPzEF+qMiPd5EvlvzEZHeL0XVf4UGldXYoc9q+++S0yYMEFXEY7P10UCkM9Df+Q9kc0qwlGT/NTTH71G6A8pcwI8+L/95i9JI7BP20ydnQa1ne8UA9lbEhg0ouLTu1/c/ErmhHAHCOQugbwXAJbec/8Mt+lhBz8LstFNulX+vHf/lttuFdddf33eW/V73RcGdx7kvTTIxwd7n4fe0zm3K/HXeSgYET1DIdEzHI4JBNn4LuRymefPnROvvvyK4FddKctLAkH69mzavXXzj3S1D/mCgNMIJH5iOq2mEvVpWvvQYtNlvkS32r4QbofKf/F114lbb79NlJSUSNBx5i0eGsjLfG5RQn88qMcHdx7weVZvNbEeoGMgKNr6RgWUApnR5LX6D97fJ956800xqsnnP8cSiC0JhPQaIiZoeZR8BXx597bN305wHodBIK8IKHikOpPHxZn/21Q72wd/VvlPJSv/Yk0q//qGerH6rrvF5Cm2N015ZxfR7J2MM0TZxT/+bEcKhKKipTsghkkzgJQZgWFyK/zm9v+JBR/K7M70rmbPhbxLYGAwK7sESEY0Ht6z9YnN6dUWV4FA7hLISwEgtuYf9r5F3TLf7q4pL/OLyQ11Wrzr+Xw+cfPHPiZuWLY0Z9X9JT4XzfA9sQGfB35W62crcfD4E50joj+QldlmtpqtrNwzra2xZYGuzk5leY7NqKevPxZTIAu7BMJk8PBJCiL0wtj64D0I5BuB7D19NZFka3/SHr9OUnyTpiLGzZZV/hPqqkV1pR4//hyd7/Y77hClpaXjlu/Eg7wk76fOiM/wuWOSrdNnow1RkgKOto9AEyAJn2frHGNgx9tva9k2yGGGz5xrF0H7lwSGo8J157tbH39HEg1uAwHHE8grAYD3+bsaAs/SxM7WrX4eipw3dXKDKNGg8mef/Wzdzw59ciGxJX6V3yNq/N7YLF/Fur3udodop8CR88MiSA5qkOQIDA4MiO2vvS6OHjkil0GSu1jIaKWtguxF0ObUHXWZH3v3+ScP2lwuigMBWwjkkwBgNK3f9BQN/vfbQu5iIbzeP33yBOHzepUW6yFvgTfdvFI0NjVpWU5QWVn+EpUX06Bf6hGVJR7BQkCupZ7hkGju0rffPdd4yNa35WSzePWVl0Vfr1ovu7wMwHYB/QO2xxI47RaRm3du/X6rLBPcBwJOJZB7T+oEJMm97z/a7d63uMgnptHgzxoAlYln/ffed5+oq69Tma3yvEq8Lhr0vaKaZvvZXMtX0TASHMXBtiExGoYWwCrPYDAoXnnpJXH44CGrWV11PwcU4u2CdiZTGAeCrtDHPnz+6R47y0VZIKCbgNqRS3dtE+TfuH7Tn5B7379IcFrLYY7exzN/t+LBf+HiReKTn/m0KC8v11Jvq5nyQF9XRoJPTbGYVFkUW9932rq+TBtZEnZT2/pGYBAow2/sPfyb4GiTZeVl4lRLi9IgQ2X+kpiGaWjEPm0NfTfqPVHXrTOWzv9B64ED+IKM7Wy8z2kCOS8AcEhfMon/lp29wJb+0yY1KFXNe2gJ4a41a8jK/xblQoVVNhfW9b1ialWRmFpdLCpI3Z/rM/7xmBR53KK9PzjeKRyTIMBeKefMnStaT50SIyPq1u9Z+OaAWrYGEzLENDPoXTJ/avWW5uZmqIkkvg+4xXkEcloAWHbPpo/TzP/7hNWezeNUUHVluZg8oV7pNrza2lrx2Q2/JmbMmkklOCex1f5kmuXPqC2Oqfl5j37erBmNg5lNF3pIA8Cug5HUEPBT8KvF110rBshIsLOjQ02mlAsvv/Gfze6D5we9ldPOHtv3C2UNQUYgkEUCOSsANN374M2GaTxL7PQ52L+iY+pqqmirX80VR619XHztteK+T3+K1KXOUfnz1r3ppOKfTDN+9sjHWxwLJQ2NRgQ7CUJSR4CXBObOmycqaItsi8IlgSKfV7A2gIUAG30FLJ0yb0kJCQGvqCOEnEAgOwRyUgBYsf6BRVHT/TIh07Ppfpy+mFhfK2qrK8c5I3fISyr/u9euFTfdcrNwKbYjkKvRhT37PPBPoYHfLo98snXVdd9o2BQDJAQgqSfQQBEqWRBoPd0qRsiboIrEu3DKS0tiQkDUPs3NxybPu77v7LEP4CNARScij6wRyDkBoGnNF6dFXWI7EbMl7B3PfqeQW9+qijJlnVRbVyc++7kNYvrMGcrytJIRz/in0dp+IQ/8cX6sAYAAEKeh/tXvpyWBaxeLIZq1d7S3KymAd+FUkIOsQfITwJEF7UnG2knzlxxtO7rvQ3vKQykgoJ5ATgkAK9f+Zk3EHX6dMMxRj+LqHF0uV2ybH0f0U5U4gA+r/EvL1AkUsnVjt7zTLw78xbSlD0nE3AKzEICkjwBrvNg4sKq6ipYEmkVUgQMmNwWLqigvFcO0OyAcsaX/eGHsvknzbtjZdmzfcX20kDMI6COQM4u7GzZscJ8cLHmNUNymD8dHOfOsgvf4s6GRinTByv9usXDRIhXZWcqD9+/zFj522oN0OYHTPQHRORi6/CA+aSPQ090tnnvmGTIQVBNPIOY1sK1d2LhNcJC8Bd4Ib4HaviLIWCOBnNEAlExv/Bqp4x/UyOJS1jz4z5g6URRR8B0Vqbi4WHxmwwYxa/ZsFdlJ58EDP+/f5618mPGPj/EshQnGLoDx2eg4yqGsWShuO3tW9Pdbd/DDS3asCeAYAjbFD/CRMfLtkxaueKLtyF5Ijjq+JMhTG4GcEACWrdu4lvai/wdR0K6xYLX/9CnqBn926LPh1z8vGiY0aOvEVBnzYI+BPxUlERv4z/aOpr4QVyglwLsErlm4UHR1dYnurm7LebMQUE42AbHlgLAtywENRjQ8GdsDLXcdMrCZgOMFgJUf3zTFNI0XiYv2MHj84GC1v79Yzc7CGtrf/zka/Curqmzu1o+KqyevfbPrSgTP/pGSE+gaCpENgC0DRvKKFOBZFrznL1gghgaHRPv585YJxIWAQdptEFFgY5BGhZZOnnfDSRIC9qVxLS4BAUcQcLQAwOv+3UEf7/VfaActtvZXZfA3afIk8Wuf/5zwZyl8L1sozaKBv6HcR/v47aCX22Ww6x8OBhSxbytZbgPTUHsetGfPnSNMsuQ/02o99o6L4lGXkQHvwOCwUnfESZq+ZuKC63/edvQDNQYNSQrCKRBQQcDRAgCv+1MjH1DR0FR58D5/VVv9eK3/U5/5jPBpCA+cqh3x8zMveu+Lf8ZrcgLdNPvnP6TsE5g2Y7ooIQc/zSdPWq6MmzQLpRQ/oJ80CzY4C4I9gOUeQwZ2EnCsAGDnuj97+FPl5IeD+dzziY8LN/kqz1ZiC39W/SOlR4AjAJ7oDAjWAiA5g8DESZMER8U8fuyY5YGbjXrZYyCHErahj2EP4IyvEGqRBgFHCgB2rvuzb39V7n0bm5aLO+++O6uuc3mtf0ZtiX5ryTS+XLlwCav8j3eMiFDEhqEhF4A4qI4cDpuX0o4dPWpZhc/Bg4rJtoeXA2xIsAewATKKsE7AcQKAnev+HNWPA/uoSLfefrtYecstKrKylAev+xeqG99MwYVp0D/eOSJG4Ps/U3S2XV9FBrTTZ8wgIeCYCIetReL1kfttdh1sUwAh2APY9i1BQbIEHCcA2LXuzypBDunLhkdWElsvr1m3TixZeoOVbJTcyy59OXofUmoCQ8EIqf1HEPgnNaqsX8GBsthz4Injx0Vw1No2TXbsxXYBQ+Q2WHOCPYBmwMjeOgFHCQB2rfvzQ2A6bffjwdtK8pBa8ROf+mRs+5KVfFTdO6HCJziEL1JiAjzrP0POfk73jMLiPzEmx51hh0HzF8wXLSebxciItcG7hJYC2CBwJGBNmEgDEuwB0oCES7JHwDGjhV3r/qwCnEGOftj5iJXEwgMP/tn27je2DdNqSmh2Y02jMTa/fHjPK/tBMvIboP39bbGBPyCGg3YFjMkHgs5pA++qmTt/fswmYNTi4M07A3hJgT0Gak6wB9AMGNnLE3DEaMHr/s1D/tdJKr9Vvimp74y7+OW1QKtp7T3rxaLFi61mo+x+Hvivn5L9AEPKGpRmRjzAh2iAD9LMPkQOX4IUzjc45pUt/Gmyh5RHBHp7esWPnn5aDCsIKdxKcQNssAkYongBTYgXkEdfwjxpiiMEgMZ1G79Oa/Ff0cmU1/rZv3+Jgr35t626XTQ2NemsbsZ5s+p//gR1UQszroDGG9g3zzCt2QfIWG/s4M4DP1vvY3zXCN+hWbO3wC0//JEIBq3N4HkpoLm1zQ5NwK9MT/GKvc8+Zss2BId2G6rlMALW9OAKGmPXuv+E+ppYzHCrVeaBf+UtN1vNRvn9bPlfW2pds6G8YhIZ8tY8Vtmza95zfUHR2huIve8PhAWH6mVBgAd++odUoAQ4nDZvETx86JAlPwE8MeDlgL6BQUv5pNENbA8wiVwFP5PGtbgEBGwhkFUB4Po1G0s9rpif/0qdreXtfir2+rPK/86779JZVem8vRQPvbYsNwUAXqPvo8Gdw/ByNL4zFJCnZ5gGe5r1Y3++9Fci72+srKwU1eQs6NiRo5ba6qbfjo+3B+r3EbB00rwbdrQd23fcUoVxMwgoIpBVAWDa/KV/Re24R1Fbxs2Gjf44wA9FExz3fLoH2diPPfxZ3TaYbnmZXsc2ALni/Y9n+DzAtw+EYrP7c/1B0TcSjhnnIRRvpj1f2NfX1tWR22C/OHnihCUQHPo7EiHtkn6jwJtK5932WPexXYg6ZanHcLMKAlkTAFasf2CRKYwnqBHa6sCDNQ/+Vo3+Jk2eTL79P51V976pOpsH1QbaBuhUAYUN8ViFz5b4p3oCsQGfVfm8vo8EAlYITJw0kW43RetpawGEeClgkPwDhEkQ0JVoGlJbJEaDpAV4Q1cZyBcE0iWgbfBNVYFJ85ZuoWtmp7rOynlW+1eUWYsiXEshfT9LUf2yGdgnXQblRR7HeQFkNf55muGf6r6wjh8gdT8SCKgmMG36dDE8NCTOWwglfMEeoJjsAfQGDiIh4Kaps69/+szxD3pVc0B+IJAJAWuecDIpacy1Tes2PUgfbx9zSPlbDutbU1VhKd9y8kD2mQ2/Rj7Eiy3lY9fNfSPOiGbHa/qs1j/QNiSOnB+Ore1DtW/Xt6Bwy1lN9jnzyE+AlcTawkkUGVRzKol6jG9qLgPZg0BKArZrABrveqRSuCPPUs20bVrnwB/Tplhb9+dBf8Ovf15Uki/yXEmBkCnqyBDQqr2DTHvj6/pswMd/g2Stz8eQQMAuAjyDnzNvrjjTekb09/dLF1tEnkLDYe32APMnz1/y/tmj+w5LVxQ3goBFArZrAAxvgAz/zAkW653wdn4ITJlYH/P3nfCiFCc8NAv41Gc/K2pI/Z9LKUoL7R0D1vZFZ9peHuR5tr+fZvus5ueBHwkEskWAPXx+kux16hsaLFVhIm0bZsNArckU/9L4iUfy03mHVnDIXBUBWzUAy9dvWkoVf4z+tAkeDXXVltf916xf5ygXv5l0Nq+5VxR7BG8L1JlY2DhPVvzNXYGYcR8b+SGBgBMIsBAwa/YscWD/fukIgjF7AAoYdsE/gLZWVYlIyNV27INXtZWAjEEgCQG9o8TlBfM+vH+nP21CR1lpiaitsuZSYPF114mFixZdXvMc+sQDMQ/KPEDrSLGBn2b8vzo7FLPoh5pfB2XkaZVAeUWFYHfdVpLP5xUTNdsDkKDxR41rHr7GSj1xLwjIErBNAGhav/H/oEqukK1oqvt43X9yQ32qy5Ke5z3Fq+9cnfSaXDjJ/u+PdYwoXYOPD/z7aeBnZz0Y+HPhm1DYdZw9Z45oXL7cEoTK8jJRVaHNXInr5nO5o/9mqZK4GQQkCWibjY+tT+MnvlAnou5f0LGSscdVvWd1XWy/P0nssonX/T/7uQ2ijFyM5kNiD3rsXY+XA8jbonSTeOBvJw99zZ20d5/yg12fNErcmAUC02ZMFy3NzWJwcFC69Jh/gKFhchSkbQvrrMlzbzhCboJ/JV1J3AgCEgRs0QAYEd/fUN1qJOqX1i111ZWCY3xbSavvvFPwnv98Suxo59C5oZiRXqYrArGBnwwKYzN+surHNr58+mYUTls4bPe9933C0lZe3lXDhsU80dCWDPMb5BzN2r5lbZVDxvlKQLsG4MZ1m1bSavS3CKCWXw/v27X641y4eJG4+WO35GUfsyUAW+ZzYB1W2/soaFAyjQAvH7TTwM92BOyeFzP+vPxaFFSjiigCaE1tTSxwkGzDOZQ4C8UjgVHZLFLdVx4VLj95CNyW6kKcBwFVBLQKABs2bHB3h73P0MjPvjq1JB782VhHNtVQMBHeNsSWw/mceCBnQaCD1Pnd5Id/gN6PBKNkwR+JDfQsILT2jJJlfzAWcS9TjUE+s0Pbcp8A/86Do6Oira1NujEl5Bukn7wERqN6lgLoOdk0dc51vyAPgeelK4kbQSADAlqXAJqHSn7HMMWSDOqT0aXs5pfX52SThwwH773vPuElLYLdidUhOjWKydrDnvr6aXbPM332G8BR+Hi2DzV/Mmo4l+sEbl11u5g4aZJ0M1xkS8NhxTUmd9Tl4p1SWrSlGuuNrHOUgLZp79L1X6w3hPlz4mJtcT4BWF7bmzaJvP3Rq2xi16G8X1h3YpV7bZlPTCj3iSlVRWJqdbGYWFkkJlYUkec+nygrcsdU8zwwQ+WuuzeQf6ES4DX8GTNmiAO/2h+L/CfDoYi0jQFaBgiGwjK3p3PPtElzl5ykpYB96VyMa0DACgH50TNFqR4j8od0iTajlvqaKuHxyMsvC665Rlx3/fUpWmHtdBGtt8+sLRbXTi4TU2ngr/J7YgP92Fy9bkNUltAWRhIIFtN1s+pKHBfQZ2x98R4EcplARWWlYEdfVhL7BtBpEEhyyld5+dRKHXEvCKRDQMuX7IZPPVzlCptPUwW0zP7ZReekBvkfYVV1Nbn6/YzWdX/2yT+bBnO/z522qp/1fsVeV0xbwGvw7NUPCQRAQC0BdvE9GgiIc5L2AO6LXjaHRwJqK/ZRbjU9Ie/htqP7PvzoEN6BgHoCWjQA7tHol6mq2mb/VgZ/NvbjbUE+jX6+p9cUi2mk5pcNysPb9nmpgLUHSCAAAuoJsD3AhInytsm1tPWYdyDpSmQ79WeUN2wBdAFGvjECygWAxas2lNG39vd08WWvXFb2/K9YeZNosBgoJFnbeOCvLVXzYKj2e2NLB8nKwzkQAIHMCfBEgF0Fy9oQ8RIABwzSmBY3rn/wkxrzR9YgoD4oj7/E/7+IqxaPOqx6a6itlu42Vv0vv/FG6ftT3TixwhcLx5vqukzO15Ph4ATKFwkEQEAtAXb8tcyCq2DegcQ7kXQlQ7j+XFfeyBcEmIBSDcCqVQ8Xm8L8I11oefC3sl9/9V13Wro/WbvKi90xy/5k18ieYwPBErINQAIBEFBL4KabV4ry8nLpTCfU1UhrEdIodPmydRvXpnEdLgEBKQJKR5Wh4uhvUC3kF9aSNIHV/lUV8j/U+QsWiBkzZyYpQf4UW/LPrCnRumDXAC2AfAfhThBIQIB9gKxavTrB2dSHeScS70jSldwuaAF0sUW+CjUAjY2PeE1D/LEuqFbCcnpp7+7tq+/QUjW20plZWyI8JAToTGwPwG58kUAABNQSmDt/npg5a5Z0ptWV5YJ3JulIpmneumztg7fqyBt5goCyEcVVP/IA4ZyhA2l1ZYUoLpL/ga285RZtUf4mk7U+O/LRnVi8aChXY1you67IHwRyjcAdtDzInkFlUswgsEGfQSC0ADK9gnvSIaBGAHj0UZdpGF9Jp8BMr6EvPxn+yavY6urrxNJlyzItNq3r2YFPAxnp2ZU4tC8SCICAegJVVVWiacUK6Yz9FCegolyPQSC5BFl74z0bl0tXDjeCQAICSgSApp0nNlD+8xOUYelwdVWFJSOb1Xfdben+RJVndfwM2u9vZ/JedEBiZ5koCwQKhUDTihtFVbWFyYaFe1MxjpqwBUjFCOczJ6BCACCfFTGnFZmXnuIO3qNbQ+p/2bT42mvFlKlTZG9Peh8P/m722GNj4uKShfK1sSooCgTyjgDvMFp9513S7eI4AeVlfun7k99ofrJp7UOLk1+DsyCQGQHLAkDT+o0fpyK1ONVn45q4283MmkUudUkld+vtt2V6W1rX118M4JPWxYovgiGgYqDIDgTGEJgxa6aYt0BemVmnTwtAbgFM9g6IBALKCFgWAExhaHFWwYY1NaT+l0233HqrKPGrl8Y5wM/kKvvW/a9sv706hytLx2cQyH8Cq+64Q/DOIZnExsplFkKUJyuTNK2fpx0Bc5Ndg3MgkAkBSwJA07qH7qTC5C1nktS0mvb8e0glJ5PYx/d1S7QoJQT7+Zf18S/TlivvGQlFrzyEzyAAAgoJlJFjoJU33yydY50+vwBut+H6E+mK4UYQuIKAJQHANKJfvSI/JR9js/9qudk/33vnmru1hOtki387tvwlgjgajooohwlEAgEQ0EpgaWOjqK2rkyqDnZb5S/QYCJOvlYea1nxxmlTFcBMIXEFAWgC4ce2DSyhY1aor8lPysbK8THgl9+TOmz9fTJgwQUk9xmbCqv9J5JI3m2k4iNl/Nvmj7MIhwAbIK29xpBbAKzyRLxVOT6ClOglICwBRw7VJV8U41KZsuvGmm2RvTXofW/3bbPR/VX0GR8NXHcMBEAABPQR4MlFDAYNkUilpAKxELU1WJikBHxTkeyXZNTgHAukQkPoSbdiwwU2O7+9Pp4BMr+HZv88r5/Bm9pw5or6hPtMiU15fQ+F9S23w9pesIqz+7xoKJbsE50AABBQTuPEmeRMnjTsCpi7beXyV4qYiuwIkICUANA+V3k2stAT9sTL7X7FS/eyfDf44Gl+205neUYHl/2z3AsovNALXLFwoKqvkNJJlpSWWXJgnY00zMG0a2GTl4lx+EZASAIQZ3agDAzvRYGcaMmn6jBli4qRJMrcmvWdipU9wtL9spsHRiOgbgfo/m32AsguTABsVN90orwWwMqFJRpxMgT/b+IlH1O9zTlYozuUdgYwFgFvu+41y+vJ9SgcJKyozHbN/NvxrIKc/2Uw862/tCWSzCigbBAqawKJrF0sHE6soK5We1KSAXuYKj346xTU4DQJJCWQsAASDoc9SjsolTyvqMnb3O3Wa+p0xUyjSH00AsprO9o0K7P3Paheg8AInwC6Cl994ozQFXVoAIUwtmljphuLGnCOQsQBAnv+0rD1Zmv3ftFI5eI68x9H+spn6A2HRPhDMZhVQNgiAABG47vrrpD2LxrY1Sxo2J4NPysG7Gtc+qH7dM1mhOJdXBDISAGIOKAyxSjUB3i4ju2WGvf7NmDVTaZV41j+1OruGf+GoKU51Q/WvtGORGQhIEvB4vaJxeaPk3cJSULMkhbppb7KW3VhJysSpPCKQkQAQdUUeoLYrV4qzhCybdKz91/i9gtf/s5laaPAPRUjGRwIBEHAEgSVLl4qiIrmJQUV5qRbvpJQplgEc8e3IzUpkNMrRzFi5+p+tbNlQRibV1deJOXPVxsbg2T9b/mczdQwGRT+s/rPZBSgbBK4i4PP5xA3Lll11PJ0DHNeEnQOpThSLfcmydZv0BD5RXVnk5zgCaQsAy+59iPVfC1W3gCNnyYb81eH1r5ac/vjcaWNRjUMEKNjPWdrzjwQCIOA8Assal0lHCqyskNd0JiNBkxZoAZIBwrmEBNIe6dxmVPnsn2slq/6vrq4W8xcsSNgwmROx2X+FnIpPprwr76Flf3Gya4QC/lx5Bp9BAAScQKC4pERcv+QGqaqUl/oFxxhQnUhp+UDMO6vqjJFf3hNI69u4atUqj2kaX1BNw00/Bt7+J5Mab2xSvqZWR3v+s+n0h2f+rAFAAgEQcC6BxqblUgP5heVO5TuoGdSkE4N+Ds2OBAIZEUhLAOj3T19HuSp3si9rGOOhSIELrrkmo4amupgD/UygcL/ZSrzmz2v/SCAAAs4mUFpaKmbMnClVSVmNZ+rC9GhoU5eLK3KZQFoCgBHVs8Yk+2OYM2+uYIMclSmbs/8wWfu3wNufyu5EXiCglQB7B5RJfjIElA11nqw8QxifXrxqgx4jg2QF41xOE0gpADTe9UglrY3fp7qVHPFPdu//osVyP75EbeC1/4Yszv5P9wYECwFIIAACuUGAI4/KbgmspC2BGpK/pMT/GQ35Iss8JpBSADC8AXb9q3z/iuzs34r6LVE/Vpd4s7b2PxSMiN5hBPpJ1Dc4DgJOJMDLkPMWzJeqmuyzL43CHkzjGlwCApcIpBQAKBjN2ktXK3xTIen8h8NzsjGNylRfLheBUEUdsOVPBUXkAQL2E5DVRPoo4mmJpEOh5K00b1u5YYOcVXXyjHE2TwmkEgB4rL1DddtZ9c9LADJpoWL1v9/nFvyXjcQhfjnULxIIgEDuEZgydaqorKyUqnhlhZZlgKLwgP9mqQrhpoIkkFQAaLzn4WuJinLrf1kVGHv+q29QW52szv4p0h8SCIBA7hK4ZtEiqcqz91PVmkyuiGmYq6UqhJsKkkBSAcAlosq/TLG9sJJGMLIqt0Q963Ebgtf/s5G6hkLY858N8CgTBBQSWLRYTgDgEMOl5AVVdaLFUeXPbNV1RH7OIZBUAKD1f+VfJnb8ww6AMk0sOMhK24nKqiO3v4rNCRIVddlx9vTXhtn/ZUzwAQRykUAVeSSdNHmyVNV17AagR8vyW+77jXKpCuGmgiOQcCS+6FryNtVEZNX/02fMELwDQFXigZ/3/mcjdQwEEekvG+BRJghoILBQUgugyTWwZzQYulVDM5FlHhJIKAC0DBUvpfZWqWwzz+JLyZe2TFKt/q8o9mRl61+Epv/nSQBAAgEQyA8C7JWUVfqZpgvPQ+U7rEmr6VKuuc20bbg+NwgkFABonFL+JSou8pEP7cy38Hlp28xc8v6nMtX4s7P2f64/KFgIQAIBEMgPAsXFxWLWnNlSjSn1qxcATAFDQKnOKMCbEgoA5FpSuQAga/Qyb/584fGqG7DdJIRUlshtQ7TyHQmGo/D3bwUg7gUBhxJYtEjOOym579PRoiUr1/5mjY6MkWd+ERhXAGhsfMRLc9SPqW5qKfnBlkkLJX9cicqqosE/G8Z/bX1BQYaVSCAAAnlGgDUArAnINBWRdtMjsXyQohxX2AiuSnENToOAGFcAEPWBFcRGncUdZcbrXTK+/1n9P3XaVKVdVUPW/3anEPn67xkO2V0sygMBELCBgIt2NslGCPRrWQaAHYAN3Z7zRYwrALg0OJPwk/c/FgIyTVOmTCW7gXGrmWlWset9bpcoK8rcYEeqsDE38b5/TP7HAMFbEMgzAtOmT5dqkaxmNGlhGp7hScvDyZwkMO7IampY//dLOr2YPkPuR5WoN6pL7V/757qwAIAEAiCQvwTkBQAtdgALm+55eGL+0kbLVBC4SgC4GEziJhWZj81DVsqdKilVjy177PtsWP8PBCKCDQCRQAAE8pdAVXWVKC/P3AePl+KieCm6oOpkRs07VOeJ/PKLwFUCwMVgEkUqm8kqfN4CmGlio5qGhoZMb0t4fZGH6uG9qskJr1d1omsI+/5VsUQ+IOBkAtJaAA12AAa2Azr5q+KIul01GuoIJuEvkVz/J+M/GbuBRGSzsfUvTHv+eynqHxIIgED+E5AVAPySO6SSEdXxLE9WHs7lHoGrBAAy01utuhmy3v+mK1b/s/c/u1M3G//B+s9u7CgPBLJCYJqkzZLsMzJ5I43ZS++5f0bya3C2kAlcJgBwEAkaq5arBiIr3cpK0+PV30U7ELJl/T9efXAMBEAg/wiwDQDbAmSaPB638NGWZ9WJrAuUT+hU1xH5ZY/AZQJAKBi+lqqidJrspm13Muv//lK/qK2rU0amvNhtu/OfodEIQv4q60FkBAK5QUB24iJrKJ2cSvSG5OdxtpAJXCYAmC7jGtUwpGf/09Ru/8vG+n8ntv6p/johPxBwPAFZAUD2WZkMiGmqf6YnKw/ncovAZQIALVYvUF192bUt2bW0RPW3e/2fA/70DsP4L1F/4DgI5CsBWQFAjwZAKH+m52u/FWK7LhMAyFhNuQZA9ks9TaEGoIS2/nndmXshtPKF6KHBPwrrPysIcS8I5CQBv19u+ZJDCsssl6aANP2ib5cUl+F0IRK4TACgyABKpUXe/y9j2CJrSJOoA8uyYf0Pv/+JugPHQSDvCchqATQIAEakv2h+3gNHA6UIXBIAVq1a5SFn9XOkcklwk488XMkk1er/Up+9vv955j9MBoBIIAAChUlAdguzT2HY8zh50+1WOrGL54vX3CdwSQAY9k+fTc1Rug9FZvbPSFWq/zm/UpuD/wzS4I+t/0weCQQKk8AUyQimss/MpJTNqPKl3aTl4WTOELgkAJgaDACLJKXZuoZ6ZQB57d9n8/o/+/5HAgEQKFwC7Ma8vKIiYwCyz8zkBRnQACQHVLBnxwgA6reLyEqz1dXVyjokG85/WAOABAIgUNgEamoyf45xYCCV7s+5Byi6KzQAhf1VTNj6SwKAcKmXEmXWs8rKyoRXUnMwXiv9Nq//8/a/4SAEgPH6AsdAoJAIVNfUZtxcHvzVRwY0YQSYcU8Uxg0fCQCmqVxKlBEAqmtqlJK3WwOA2b/S7kNmIJCzBGQ0ANxYWc1pElBlK9Y/MDXJeZwqUAIfCQBC7RZAlmJdrsz33tcoFAC4+BKvvTsABqD+L9CfEpoNApcTkJ3M6LADiJoe2AFc3j34RARiAsDKtb/J0251jvcpM9ktgFUS62aJerKYBn/SqNmaBgPw/mcrcBQGAg4lICsA+Hxy26eTY1Dv5TV5eTibCwRiAkDYM6pe/S8Z2UqlBqDIM1bBob87wrT+PxKK6i8IJYAACDieADs0k7Fnklk6TQXDNNR7eU1VJs47n8CFEdJU7yhC9ktcXa3OBqCYXADbmQax/c9O3CgLBBxPQGZHkwYbAOaEJQDHf1vsr2BshNQRA6BIQgPAvrArKjPfO5sIW7HNGoCBUaj/E/UFjoNAIRKQWQbw0HPQTW7UFSflWl7F9UN2WSBwUQOgfn1IRgNQVVWldA+s7RoAGABm4SuMIkHAuQRkBABujQYtwLTGTzzidy4p1CwbBC4IAIqDAMX2skrEAZD9sSQCZ6cNAO//D2D9P1FX4DgIFCQBWZsmmQlUCsCGOzg8L8U1OF1gBFwbNmxwqw8CJBdSQKUAwIO/nTsAAmEY/xXYbwfNBYGUBKpr5WyaNGgABIICpeyugrvAdWjYy4vuciN2Alwy6/+clYzBTIIqCDtn/1wHzP4T9QSOg0DhEpB9punxBSAyd01YuF1XEC13+VyectUtlfUBoFIDYPf6/yjU/6q/RsgPBHKeAG8DLKPtgJkmHb4ADBHNvCKZVhzX5xQBlytoKP9SsDW/TJJ1nTleWXYLAFgCGK8XcAwEQEDmuSb7DE1Gm5ZElT/rk5WHc84n4Iq41AsALoktLCwpF5eUKCPGYYDtTFgCsJM2ygKB3CFQUVGZcWVlnqGpComa6p/1qcrEeWcTIHf9YeVSoUwMAJ/Pp5SURyIOgWwFyI+CCMIIUBYf7gOBvCYg82xzabBgpimR8md9XndcATTO5Yq6ylS3U0Z69eawADBKgz/JAEggAAIgcBUB2WebzHP0qsLHHKCJivJn/Zjs8TYHCbiihnq1kIwXKxkpORlvj41LAMEItgAm6wucA4FCJiD7bJN5jibjDBuAZHQK8xxtlldvGZrtJQBWn+lQoSX6ioQjmP8nYoPjIFDoBGQFAJnnaArWWAJIAajQTrvMqHoNgMvI3I+17I9kvA6zc/bP5XMUQCQQAAEQGI+A7LNN+RIAdgGM1z0FfYwmyobydSEZydUrETwoUc/ZaQDIdYAAkKgncBwEQEDaBkCxIaABGwB8Ga8gQAKAjiWAzDUARb6iK6om/9F2AQBLAPKdhTtBIM8JFBXJ7XBSrQHALoA8/6JJNM9lKt4byoGA+C/TJCslj1cOlgDGo4JjIAAC2SAg+2xTLQDQQiVsALLxBXBwmTxVV/qlkFH/Mx/ZdbLx2EIDMB4VHAMBEMgGAdlnm+yzNEkbS2LB35JcgFOFRcAlTFOpDYCMASAjl/2RjNddEgqI8bJJ+xhsANJGhQtBoOAIyD7bVGsAGPyJnmqlz/uC68w8azDHzM07DUDmCxDWejXCrgCRQAAEQGAcAj6vpA2AhpmMxzuk9Hk/TnNxKIcIaFgCyNwAkHmp3AUgY4Ngqc8w/lvCh5tBIJ8JyD7bdGgAQi4XBIB8/rJl2DbSAKi2AZATAGTVZBm2V8vlGP+1YEWmIJA3BGSebzoEAFdYrcY3bzqoQBtCNgBq/UPLGq7I/EAS9ZndSwBYAUjUEzgOAiDABGSeb7LP0mTEoy61Nl/JysI55xNQvwQg4QWQMcn8QBLh1bB0lqgoHAcBEACBlARktgJq0QAotvlK2XBc4GgCLAB4VNZQdvDV8WVX2a5keZmIBZgMD86BQMETkHm+6dFkGkqf9wXfsTkOwEVfsgGVbYhK+sUPBoPKqqHnh5OkejACSAIHp0AABGSeb1ENa4uUpdLnPXo2twm4aOwaVNmEaFQuNK7MDyRhvWXVEAkzTH4C439yPjgLAoVOICQxwZF9liZj7XJFlD7vk5WFc84nQAKAoVQiLEQNgJ2hh53/lUINQQAEriQgM8GRfZZeWfbYz1HTo/R5PzZvvM89ArQEYCr9QkTN7GsAIpLLELLd55bb+ShbHO4DARDIIQLhcFjIzOZl7kmFxRvFEkAqRoV0nv0AKBUAIpJLADIqskQdZbdnPjdbUiCBAAiAwDgEZJ9tOgSAaCiq9Hk/TnNxKIcIkB8AQ+makCk5+w4GQ8qw2a4BsNnmQBkoZAQCIKCdgOyzTYcRYLevUunzXjs8FKCVAAcDUioRymoAZNbIEpGxXQCABiBRV+A4CBQ8AdlnmwYNQOjY1m+OFnyHAMAlAi7TpXYJwKR9JvyXaZL9kYxXTkTODGG8rNI6BhuAtDDhIhAoSAKyzzYNRoBKJ3sF2Zl51mgXbQNQ/qWQUV3JrpON1x/QAIxHBcdAAASyQSAUkvNxIqtNTdJG5c/6JGXhVA4QcEUV2wBwm2VUV7JS8niMw5J2COPllc4xN2wA0sGEa0CgIAnIPttknqMpAGP9PwWgQjtNHirV2gAwQBnVleyPZLwOs3sXgNeDfYDj9QOOgQAICCH7bJN5jibjrdrra7KycC43CLh0uIaUkVxlfyTjYbZ7CaDIg22A4/UDjoEACFgQACR9qiRirtrpW6JycDx3CJAAoEMDkLkVnkobALZBlLFDkO22ImgAZNHhPhDIewKyzzaZiVRSmIb6Z33S8nDS8QRoCcCt3DBEZvBVqQFg6qPhzHciyPaWD9sAZNHhPhDIewKyzzblSwAaDL7zvvPyvIEukjKVG4bISK6yP5JE/TMazlwLkSivVMfZBtDrxjJAKk44DwKFSEDm2Sa7nToZX1ODwXey8nDO+QRcblO9a0gZyXV0dFSwz2xVKWijAMB1xjKAqp5DPiCQXwSGh4YzbpDMMzRVIYYGg+9UZeK8swm4TI9P+RKA7P7V3p5eZbTs1ABwpSEAKOs6ZAQCeUWgp7s74/bIPkOTFaTD4DtZeTjnfAIu2jOvXAAIheT8+vf0ZP5DSYTYThsArgMEgEQ9geMgULgEWJXf25v5xEb2GZqMNFlFKX/WJysP55xPwDUgyvpVV3NUMrBPT3ePsqrYvQTg97mV1R0ZgQAI5AeBvt4+EYlEMm7MqOQkKmlBplD+rE9aHk46noCLg0OQZHhGZU2Dkl9eGVVZonoHKSCAffsAhPD74AwoUV/gOAgUKgFZraZsBMEUnI+nOI/TBUYgNmqR/fohle2O0ODLf5mmbom1skRlsC+AkI2GgG6KCIhlgES9geMgUJgEZJ9pwZA6g+hL5L0hpc/5S/niTc4SiAkApiEOq26BjBagt0fdEgC3x247gNIiLAOo/h4hPxDIZQI9XXJ2TRo0AN17n/1BZy6zRN3VE7igt44aygUAGTuAQCAgRoYz3zKTCEsgnPnaW6K80jmOZYB0KOEaECgcAjIaAHakFlK4JfoibeXP+MLpxfxt6QUBwFC7BMC4ZDQAfF+3QkPA4WDmyxBcB9lUCkNAWXS4DwTykoCMDYCG2T+zhfo/L79h1hoVEwCiRki5dCj7Je5VuBVwOGivBqDE6xaIDGztC4m7QSBfCLBzMxknQLKTp2TcyCRK+TM+FhwWUgAAQABJREFUWXk4lxsEYgLAey88fYqqO6KyyrJfYpUagECIjBGj9u0F4MEfWgCV3yLkBQK5S0B2V5Ps5Ck5qSgEgOSACvLshSUAIchNtDiikoCsFavsjyZR3e1eBqgo9iSqCo6DAAgUEAGZ9X/Go8UHQMSDJYAC+u6l29S4AEDxc9WqiNgDlowWQL0AYO8yQEUJBIB0v3y4DgTymYDss0yDBiAsunzwAZDPXzbJtl0SAGgbu3IVUTCY+V7Wvr4+UkeoU9vbbwfgQmRAyS8jbgOBfCIg69lUVnuaiB09TU/u3fuYnH/2RJnieF4QuCQARB2yE4DdZrL7TFXJ7iUArjeWAVT1HvIBgdwlILMEEKatyzLh1JNRMoQB9X8yQAV87pIAYBrO8AXAfdHd3aWsS9glcDiiTqOQTsUgAKRDCdeAQP4S4EFcxrGZzLJpKoqmMJVrd1OVifO5QeCSADA6NKz8SyL7ZT7TqjQ0gRiyeTtgeTFtB8yN/kctQQAENBA4f+6cXBAgyUBqSZugYXk3aXk4mTMELgkA+7dvGaR5stKRV9aY5fSpU0oBDozaawjIcQHgFlhpFyIzEMgpAqckn2Gyk6akcKJwApSUTwGfvCQAMAP6oFQLEKb1fJlQmO3nzwt2oqEq9Y9kboxotexqv9dqFrgfBEAgRwmcbpGbxMi4UE+FKGq4lT7XU5WH87lD4DIBgKqt/IsyNBLImAbvAmg9fTrj+xLdMEpRAfnPzlTt98AroJ3AURYIOIQAT3razp7NuDb83BuReF4mK4iWInve2/q9jmTX4FzhErhMAIia6q1FhyW/0LISdKKu7A/YqwXgZYBKOAVK1B04DgJ5S+DsmTMiLBHMZyQwKjgQkMpEuWEHgEqgeZbXZQKAKdS7i5TRADBj2TW0RP3TP2KvHQDXo6YUywCJ+gPHQSBfCcjaMMk+K5Nx1LG7K1l5OJdbBC4TALxGdL/q6rMhIO9tzTR1dXYqDQ08OBom6TrTWli7nrcDekgTgAQCIFA4BE6fklu+lNWWJiPrMoXyZ3qy8nAutwhcJgDs3Pr9Vtq/dlJ1E4ZG5OIMnVZoB8CDPwsBdiYODlRFtgBIIAAChUEgFAqJc21tGTeWVf+8BKA6mVHzDdV5Ir/8IXCZAHChWcZrqpsnK9kqtwPAMoDqrkV+IAACYwicaW2V8uTHxn8qXaBfrFLfrIqRvWOqh7cgcBmBqwQA8hqlXAAYGs58JwDXUrkdgM2GgNwGDg/sc1+FmU8hgQAI5BkBJ63/C2G8sWXLlszXX/OsT9CcxASuHpki0dcTXy53JkQWsaFQ5up3dqU5ODAgV+g4d/FWwEDI3u2AXI2KEvc4tcEhEACBfCMgq7UclpwkJecXVT6ZS14ezuYagasEgL0vPsULWAdVN0TWDkC1FqB7yP6gWIgNoPrbhPxAwHkE2HlZe3t7xhXjuAEjCh2fxStA27ohAMRh4HVcAlcJALGrNHxxZLe4yKrUxm0tHewetl8AKPaOjzlRHXEcBEAg9wi0kvW/zDq+rI1UCkKd727b/GGKa3C6wAmMOzIZQr3qSFbFJbulJlG/higy4IDNtgDYCpioN3AcBPKHgKy2UnZylIycYRi8lEt7n5BAIDGBcQUAj+nbTrco/fJwXAAZP9cD/f2ih2wBVKauocztEayUz14BkUAABPKbwKmWFqkGyhpJJyuMtj2zAIAEAkkJjCsA7HjxO910176kd0qclFV1HT6o1iShj4IDqXa5mQxH2G4PRMkqg3MgAALKCXS0d4jurq6M8+W4AaPBYMb3pbrBMCNY/08FCec5AGCCZArlXyBZQ8CD+w8kqKTcYR78e4bt0wLwsgMSCIBA/hI4uF/O4Z4O9T9RPrtn21PKA7vlb+8VbssSCgCmBkNAWQ1Ab2+v4AAbKpOduwFGgtiKq7LvkBcIOIkAG/4dktRSyj4Tk7bfUD95S1oeTuYsgYQCQHGR+w1qldJpciRC+/Alt7uo1gIMjkZE0KYQwbzkgAQCIJCfBFqam8XQ0JBU43Ss/xsC2/+kOqMAb0ooALz1zHcHyHRtj2omfQNyP5TDhw4JXi9Tmbps8AnAyw39AbX1VskAeYEACFgjcEBS/c+ToSDFDlCdyO2a8uVb1XVEfs4gkFAA4OrRyrXyL1L/oJwAwE42Thw7rpRax2BIRDQb6LUPhGw1OFQKCJmBAAgkJRAkA77jR48lvSbRSdnJUKL8Lhw3T7z3wtNy2xGSZ4yzeUggqQBgRNVvJeHQwEPDctEBZSXtRP3Gg/+5fvUWuPHy2Pr/vMb84+XgFQRAIDsEjh4+TOHOM1/iY7sBLQKA4cL2v+x8FXKy1KQCgKdi5C1qlfIYlX0Dg1Kwmk+eFCOSoYUTFdgxGKQwwXpU9C1dAcz+E4HHcRDIAwIHJHco8SRI9ZIm49QRzC0PuglNSEAgqQCwY8sWnqq/k+Be6cMDg8NSITPZZ7ZqnwAkiIsTnSOCAwWpTGd6R2ntP/OZgco6IC8QAAF9BPrJSVnr6dNSBWiZ/VNNXMKlfNlWqoG4KScIJBUAuAU0Pr6quiVsGDcwNCyVrazEnawwXgo41jEiRhRECiReopUG//YBfUsLydqCcyAAAvYQOHhAzj8JT2Rkn3/JWmYK48DuFx4/l+wanAOBsQRSCgCGGf3x2BtUve/rl1sGOH/unJTHrVT15i2BR84PW3IQFCaHP8dJkOjA4J8KN86DQM4TkN2azIbQMkGDUgEzTFPLszpVuTifuwRSCgAxj1KG2KW6iewBKyRhPMP1kJW8U7WBNRPNXSPiaPuwGMrALoDva+sbFfvbhmwPNJSqTTgPAiCgnsC5tjbR080e0zNPutT/htvzZOa1wR2FTCClABCDYwotX6x+SZ8AspJ3uh3NRoFHSAg4eG4oNrDzZ3bny+p9TrxkEKDlAvYjcJLsBz48MxTbTcCCABIIgED+E5BdigyFwkKL9z8h3tr9/HdP5D95tFAlAU86mZme0A+NsPcf6VpvOtenew3vBqitrkz38kvXDQwMiNOnTolp06dfOqbjDQ/y50LBy7YKGuQdCeO8DtrIEwRyg0DMGJkck8kk2R1Qqcoi73+bU12D8yBwJYG0NAB7n/1BJ9249cqbrX7m8MCBUTljuff27rVavNT9GPylsOEmEMgbAqyBDEhuR9ak/h8NFRlY/8+bb5h9DUlLAIhVx9AjYcpKxMfJK2BnR4d9pFASCIBAwRNg473dO3dKcRgJ6HH9S5V59v3/frxXqlK4qaAJpC0A9JoVzxEp5V8ytgOQtYjduUO5i4KC/jKg8SAAAskJHCHPfz09PckvSnBWdrKTILuPDpuGFhutjwrAu3wlkLYAcGzrN8kjoPptJmEK8CMbE/vokSPSlrj52qFoFwiAgD4Cu96Rm/3zJEc2DkqK1nSaHUXKl2dTlInTeUIgbQHgQntdm3W0W9YnAP+oZH+QOtqBPEEABPKXgJVlx8GY61+13kYvkv7h3r2PqQ8pmL/diJaNIZCRALBn6xMUG8BUvtWEvWKxJkAmHTp4UPT19cncintAAARAIG0Cu96RX3Ls7RtIu5yMLozq2aKdUR1wcc4SyEgAiLXSUL/exDP57t5+KYi8JWfPTuV+iqTqgptAAATyk0BLc4tg5z8yiXc6sQZAQzq858XNePhpAFsoWWYsAEQj0ad0wOkhCTkSkVOR7f/Vr8TgoJxrYR1tQZ4gAAL5RcDK7L+zW7nt9EW4Joz/8utrZntrMhYA3n3xqWPkEu9t1TXlmXx3n5wWgMNq7tkFQVh1nyA/EAABIc6eOSMd9Y99negI/EP9YkaMiJbJGPq8cAhkLAAwGtOlR/LsoWUAFgRk0of7PhDDw3IRBmXKwz0gAAKFQcDKduPOHl2zf/HGey883VIYPYBW6iIgJQAEjciPqEJyLvyStCRCgz8vBcikMAUWenfPHplbcQ8IgAAIjEug/fx50Xzy5LjnUh0MhkJCNt5JqrzJeQrU/ykh4YJUBKQEgA+ff7pHGIIdAylPXawFIKNAmbTvvfdFIBCQuRX3gAAIgMBVBHZasPzv6tG2O2nEbUS3XFVZHACBDAlICQBchmlGtUigvJ4vu2UmGAyK9/a+myECXA4CIAACVxPo6uoSx44cvfpEGkc41Lkmv/9c+jM7t35fzmAqjbrjksIhIC0AiHb/84SpVQeqrt4+affA77/7LrQAOjoFeYJAgRHY+fYO6Rbz7F/WxXnKQk3Xf6S8BheAQBoEpAUA9j5lmsbfp1FGxpeEw6QF6Jfb1sdLAG+/+cuMy8QNIAACIBAn0Hr6tDgsGfKXnZrJPr/i5Sd53bFn2+Pbk5zHKRBIm4C0AMAl+MqH/9MQoj3t0jK40IoW4IN9+8T5c+cyKA2XggAIgMAFArwT6bVXXpXG0d3Tr232b0aNr0lXDDeCwBUELAkAO7ZsGaFNe/94RZ5KPoZCYengGax6e/XlV7T9CJU0EJmAAAg4ksC7e/aKrs5OqbqxM7OefrmdTGkU+P7eF5/gpVckEFBCwJIAwDUo9nq+TVoAufiYKZrQacGKljUA7BsACQRAAATSJTA4MCDe2SHv54ydmcn6Mkmjjpj9pwEJl6RPwLIA8NYz3x2ICuOb6ReZ/pVB8qJlJYTmW2++KUbgHCh94LgSBAqcwPbXXxcheu7IJB742ZmZlmSIQ3tWzP6ZlryRacESsCwAMDlf1PMv9CJntZcCfWe3/F5aNgh883/eSFECToMACICAEC0nm8XRw0ekUXRzPBNJT6YpCzWNvxaPPirnJjVl5rigUAkoEQB2vPidbnLdo2Vryijt7e8bkJctOFAQ+/JGAgEQAIFEBNj/yGuvvpLodMrjbPnfbWHJMmkBhjhZNtLydNJrcBIEJAgoEQC4XJfh+ga9aHHD197ZY0myZoNAjetyEthxCwiAgJMIcDCxXgt++60+o5KxMIX5d9u3bw8nuwbnQECGgDIBYPcLj58TpvEdmUqkuoel644ueTvDzo4O8f6776UqBudBAAQKkEAfOR7b9c5O6ZYPjwQsaSlTFHy2z6z6XoprcBoEpAgoEwC4dNNr/h29yFnQpKg+BwkKjMrHH9rx1lticFB+KSFF9XAaBEAgRwm8/uqrgoOJySTecnyuo1vm1vTuMY1/OLb1m6PpXYyrQCAzAkoFgL3Pbj5FxWuLUX2uoyuz1o25muMEvPH69jFH8BYEQKDQCRw/dkycPHFCGgNPTNhOSVPqNL1F/5+mvJEtCAilAgDzdBnib+hFi7XqSGCUXGzKO9lg156nWlhGQQIBECh0AmEK17v91dekMbDL8o7uXun7U99o/vPeZx8bTn0drgABOQLKBYBdL2zmfTTaQlW2ky0AW+zKptdeflmE6IePBAIgUNgE3qZlwf5++X375zu7dRoX95mhkm8Vdg+h9boJKBcAuMJRU3ydXmhnoPrErjZZCJBNPT094jXaFYAEAiBQuARY7b939x5pAEPDI5aclKUu2PjW3lcek3eCkroAXAEC6pcAmOm72zazD95ndfHlSFu8HCCbDuzfL9g/ABIIgEDhEWB3v9te2CrdcO2Gf0IMm57gP0tXEDeCQJoEtGgAYmVHhVa/1VYMArl+HO2rq0veqDBNvrgMBEDAQQTYH8gLzz0nAiMj0rXqIoc/QZ3LiKb4j73P/kAuGpF0q3BjIRLQJgDseXHzLgoSpM17FW8J7Lbgd5sNgJ5/5lnBr0ggAAKFQeDtX74lzrTKewblKKVWgpSlQbnTa3q1Tp7SqAMuKRAC2gSAGD/D9Uf0Km9lk6IT2AKXLXFlE4f8fI32ACOBAAjkP4HmkyfF7p3yDn+Y0Dky/OMlAF3JMIw/ZtfquvJHviAwloB77AfV788efX9w0rwlQ6QJWK86b86Pf4jsJbCirFQ6+472dlFVVSXqG+ql88CNIAACzibATsB+9pOfWtL4DQwNi06t2/7EW3u2bv49Z5NE7fKJgF4NAJGaXTbybXp5Xxe0/oEhMUSuOK2kV2lrYHc3hG4rDHEvCDiVAE8UXnj2OUuhwaOUx3mdHv+ECNPuqS8RQ33qBad2EOqVNQLaBYAtW7bQxj3Xb+n8Yre1d1oKFsR+AZ77xTPS7kCz1nsoGARAICWBHbF1/9aU1yW7oJ1U/yFJd8HJ8r10zjC/eXH31KVDeAMCugloXQKIV77t2PutU+YumSoMsSx+TOUrW/YGgyFRUS6/FDAyPCyGh4fEnLlzVVYNeYEACGSRQEtzi2ANn5XUPzhkyfdIGmWfLfJ6f+304fe0+RROow64pAAJaNcAxJkaIfGn9F7bvjten7OyK4Dr+asPPhSHDhyMVxmvIAACOUxgaGhIbHv+eUtGe7zdr61d22MrRpdspP7wrWe+K+/jPIf7CFXPLgHbBIBdr27uMo2YEKCtxewhMDAq7yCIK/bKyy+JHtgDaOsjZAwCdhCIr/sPk2ZPNnEeZ8516HT3K0gr+srurZt/JFtH3AcCVgjYJgBwJfe+sPk7JO2+Y6XCye7lH2yrxR9siJYSnnvmGVpSgDYuGWucAwEnE/jlG2+K1tOnLVWRff1bCUGeRuFBki5+J43rcAkIaCFgqwBALTCFETMIlN+8nwIDO+o4S0aBVlJnR6d45uf/bSnokJXycS8IgIA8gffefVfs2bVLPgO6k9f9OdSv5vQPe7Y9dVhzGcgeBBISsMUIcGzp5Bvg3JT519eS7mvF2OMq37NBoNvtEiXFRdLZ9vf1xbYGzps/X5BzDul8cCMIgIB9BA4fPCRefvFFSwUGaRJxuq3dku1AqgrQXr9mX9nI51sPHAinuhbnQUAXAbs1ALF2uMzoX9Cbc7oaxfm2d7I9gDU1/tHDR8TrFDMACQRAwPkEWpqbKcjPC5YqemHdv13vuj/V0DCN39uxZYt8QAJLrcTNIHCBgO0aAC72zLEPRyfNX9JG8+rP6uyIIQr4UVVRZmkGf/7cudj9U6dN01lV5A0CIGCBAP9Of/7Tn4qIBdfgXDyv+w8O6R6XjWf3bHviUQvNxa0goIRAVgQArnnb0X0fTp675Haygp2lpCXjZML+AdgmwIqrYM6WjYlKyd3whIkTxykFh0AABLJJgHft/ORHPxajFncA2bDfnzGNeEzXx1uPvd+bTWYoGwSYQFaWAOLoo27zt+m91nB8qox5Xnv5FXHs6NF41fEKAiDgAAIxH/9bfiJGLIT35WbwREH3fv8LuMyvvbPt8eYL7/E/CGSXQNY0ANzstqMfdJJBoI9WxG7TiYFjBZSV+oXHY625x48eE1OmThUVlZU6q4u8QQAE0iDAM36e+ff29KRxdeJLeN3/1Nnzel39Xih+/0hZ4KGOAwe07YJK3EqcAYGrCVgbEa/OL+Mj86fUvBn0Vq6mG6dnfHMGNwyTEGDVHoAfFCwEzJo9W/hL5d0OZ1BtXAoCIDAOgTD55f9vWvM/f+78OGczO8QGw+xJVHMadovImvd+8UOtxs+a24Ds84xAVpcAmOX27dvD9MP4Ar21tnk/RcewS0/26sWDuJXEs46fkcqRtwkigQAI2E+Af8PPP/OsONN6xnLhvf0Doruv33I+qTIwTPO3d279/oFU1+E8CNhJIOsaAG4s7Qronzxvya/o7f30p23TPe/vDZGVcHmZn4uVThw98OSJk+Kaa64RXq9XOh/cCAIgkDkB3ud/5JB1/zk86z97Xuu8I9Y4eqA9sXvbk49m3lLcAQJ6CThCAOAmnj2279iUeUtK6O3HdDZ5lFz88u6AMj8XJZ8CgYA4feqUmLdgAdkWeOQzwp0gAAJpE3jj9e1i3/vvp319ogt5SbCVnP3oTuT69IDpKf5U25G9Wo2ddbcD+ecnAccIAIx3/tTq7XbYA4wERoWLvPv5S4ot9SpHGzt5/HgshLCvSN7roKVK4GYQKAACrPZ/+cWXlAz+PAlgoz+ry4FpYB/2iMjdu59//Gwa1+ISELCdgKMEgObm5ui0ede+bArXJiJhTU+fAiXvDPB5PaK4iDYhWEi8/Yg9Bs6cNUuU+LVW2UItcSsI5C4BNvh7ngJ0HT50yHIjeLtfy9lzFOcjajmvVBnQuv8ju7Y99XKq63AeBLJFwFECAEOwyx6AyxocHhHFFC/AZ3EdnyMHsg/yqdOmivLycs4aCQRAQAEBNrpla/+W5hbLuYUjEXHqjC3b/diQCev+lnsMGegm4DgBgBtslz0AlzU4OCxKyR7Aa3Edn2cph2iG0tDQIKqrqzlrJBAAAQsE2MkP7/NXsdWP7X5Y7T9KgcJ0J6z76yaM/FURcKQAwI2zyx6ANwWyNXA5OQpyu63h4IfMkcOHRUVFhagnQQAJBEBAjkAPOff5yQ9/ZNnJD5fOa/1s8Me2PzYkrPvbABlFqCFgbcRTU4dxc7HTHoAfEBwAhGMGuFzWXCNwXsePHaPtgR4xecqUcduGgyAAAokJcGAfnvmzka2KxFv9eLnPjoR1fzsoowxVBBwrAHAD7bQH4Nn7ED0kKsrLYjsErAI+1dIigsHRmHGg1bxwPwgUCgEO6ctR/awG9onzOtfRJfoGBuMftb5i3V8rXmSugYCjBQBur532AGwZzPuDK0kIMGiboNXUdrZN9Pb2xLYJqsjPan1wPwg4mQAb0j5H1v5WQ/rG29jZ3Su6evV7+ePy6HFxOOopvg/7/eP08ZoLBKzpu21qYenIqa9SUb+0ozheJ2wll8Gq0qEDB8V//+xnFG1Mv/GRqjojHxCwm8B7774rXnjuuZiTLhVls4vfDhIA7EjsU2Tm1MnG/PmTsQ/YDuAoQxkBx2sAuKV22gNweRw3IEjWwmwYqGLm3tfbK061nIoFEfL5rPkd4PohgUC+EGCbmV++8aZ4+5fq5Hse/O0J7XuhFyY11FG00ZJaV8Rct/jWO37yqx3btUcWypf+RzuyS8C6ntvG+i9f9/AqYUS3UZG2uN1jT4HTJjVYNgyMI2JHQevvvUfMmDkzfgivIFCwBHib39bnnhetp08rY8Bqf7tm/lzpmqoKMaGuZmz9Pwj7XHf+4BuP6g8yMLZUvAcBCQI5oQGIt+vssfebJ8+/4SB9/jX60y68hGhvPxsGcvAgq7sDuA1h0iwcPHCA1JwRMW36dCXaBc4XCQRyjUDLyWbxs5/8RHR3dSmr+rmOblrzty9KJ+8a4tn/FWkCawJuaLp5y77dv7Rn68EVFcBHEEiXQE4JANyos0f3HZw0//p2QxgfT7eRVq5j72HsJ4BUfJb9BMTrwWFMT586LWbMmimwJBCngtdCIMC7bVjd/8pLL8cEYhVt5mUE3upnl7U/15mdh02dWJ9IiJ8gDPdaCAEqehd56CSQcwIAw2g7+sGeyfOXsAZgFX/WnfihNXDRY6DHowbZQH+/OLh/v6irrxdV8ByouwuRvwMIDA4MiF/8/OeCDWNVJf5tstHuIAnpdiWOHzJ98oRUWsGJEALs6hGUI0tAzWgmW7qF+0gTsH3yvBsmUhbLLWST9q1RmmX0Dw6JkljsADXhf2Pug+lhGImEKY7AtESzibTriAtBwKkETp44QSr/n4qe7m5lVYywb39y72uTh79YvTluyPQpE9PVBkIIUNbbyEgHgZwVABjG2Qc/vXXyme5ryRxgkQ44V+bJqkYWAnw+ryhSaM1/9gwvCZyKGQcWFdli33hl0/AZBLQQ4Bn6m//zhnj9lVcFC7yqUiyqHwX2scO3f7zOHnIVPoMG/wzjhkw0hXsNLQf8BDYBcZJ4dQoB7YZ0uhs6d/2Xi6pEL+0MMFbpLmts/hPqa0RNZcXYQ5bfF5eUiHX3rI9tF7ScGTIAgSwT6KdlrheefVawQyyVaZSib/LMPxyOqMw2aV5sBMyDv2z4cJo7vF/kdd35nX96VJ0KJGmNcRIEUhPIeQGAm7hi/QMVEeH+H3p7Q+omq7uirrpS1Neqj/zX2NQkPnbbranWGNU1BDmBgGICHA/jpa3bRCAQUJoze+o8TYF9WLNgV2JfILzmz9uCrSQIAVbo4V4dBPJCAGAwTfc8TKq26NvCFLN0gEqUZ1VF2XhbgRJdnvbxSZMni7Xr14nqmsv2GKd9Py4EgWwQCJEDrV+++aZ4nzz7qU68G+cMGfzxUpydaQpZ+/OWPxUJQoAKishDFYG8EQAYyLK1D851u1xv0ePB1li87DGQHxIqvAaO7VgOT9zYtFysWLlSeDxqDA/H5o/3IKCSwNHDR8T2118XbO2vOtnt3S9e/4n1taK6sjz+UdXrez6P6y4sB6jCiXxkCeSVAMAQlt37UKMrar5Ob5X/apNB5rXBKRMbhI/CAKtOFZWVYtXq1RRUaI7qrJEfCFgm0NvTK1579RXBzn1UJ57tt3f2iO4+e4L6jK1/XU2VqKc/TQlCgCawyDZ9AnknAHDTm9Zuust0iefpra2O99lQaFJDrTJ14ZXdOHvOHLHqztWikgQCJBDINgG26t+9cxf97aStrOoN8oKhMKn820VgNGh7U6sqymO/Zc0FvxcJB+98+t//pkdzOcgeBMYlkJcCALe0af2mz9NSwNP01vaIh6wyZP/gqpcEuF28FHDjTTeJ5Tc2pbsXmW9DAgGlBJpPnoxt7eulQFc6Em+35YA+dhr7xdvBS3pTKQaITeldEgLughBgE20UcxmBvBUAuJVN6zZ9yTTEt+it7e28sCRQT0sC3suAq/rA3gNX33UnAgupAop80iIwQOv72197TRw7cjSt6zO9iFX+5zu7RU+fejuCdOrClv5s8a9DeE9SPoSAJHBwSh8B2wdGfU0ZP+fl92zcKEzju3RW/eL8+EVeOqp7SYALmr9ggbh99R2irKzsUrl4AwKqCfBM/N09e8Q7b+8QIQpqpSNxGG628s+Gyp/bo8uYN01WEALSBIXL1BHIewGAUS1fv2k9vfyE/vz82e6kc0mA2+Ilz4Qrb75FLG1cBt8BdnduAZTH4Xpfe/kV0aUwct+V2PoHSOXfkR2VP9fFpjX/K5t95ee9tBxwN5YDrsSCz7oIFIQAwPCWrX/4JpeIPkdva3XBTJav7iUBLru2rk7cfMstYu78ecmqgnMgkBYBHvB30oz/8KFDaV0vcxGr/DmML2/zy1bSbO2fabMgBGRKDNdLEygYAYAJNa55+BrDHX2J3k6TJmbhRjuWBLh6tbW1MUPBBQuvsXst0wId3OoUAu3t7WLXjnfE0SNHtFYpSE6DOJIfu/bNVtK0z99qc/a63a67Hv/nR/VYWFqtHe7PGwIFJQBwr5Hb4KnkNphiB4jF2epFVjdOpFgCug2NqqqrRNOKFWLR4sVYGshWZ+dQuWfPnBW73nlHcOQ+3alvYDA288+GlT+3jX97kyfUaduyq4DfHhIC7oYQoIAkskhIoOAEACZx3b33VxdFPM/R3oCbE5LRfIKjCU4l74EcWVB3Kq+oEE20bXDxddfBo6Bu2DmYP0ei3Ekzfn7VnaJRtvLvIpX/oO6iEubPmrhptM3Pqm//hAWoO6FOCHj0UVfjOyduJrlnPT33ZomooFDFseXQXl6FMVyihXZMbZ3tH3ljy5Yt6p06qGOCnBQSKEgBgPmt3LChJDxY8mPyFfBxhTwzyopnIbVVFYLXIHVrA7hipaWl5Fq4SVx/wxLh1bQ9MSMAuDirBHimv3PHDuXR+hI1amBwOLbFL6QwLHCishId55C+02ibn2xUv0T5ajxuSQiITXZMz1coRsoXqY51adSzk/QjT0WE6+vvbf1eRxrX45IcJlCwAgD32apVqzyDJdMfo7f848ha8pL74InkOKiMHJDYkTjs8LLljeKGpUtFUVGRHUWiDIcQYKM73sO/k1T9HbTWb0dij37nycJ/cHjEjuISlsE+OXiPP//ecizJCAFG0z2bfpe6+/+htspEFBswTePvygMtf7N9+/ZwjvFCddMkUNACQJwR/VD+mn4ofxr/nK1X3ofMHgTtekDx4M9CwFISBkpIKEDKXwK81n744CGxi9z2dmvczjeWIAsbXT19opP++H02E8/4eebPGoAcTbvJJmBNOjYB16/ZWOrzGJtp1v8Zy201xCujRvhzHz7/NNwVW4bpvAwgAFzsk+XrN/4+qb7+kT5mlQkvBfCSAC8N2LEswM3nqIOz5syOGQvOmj0bBoMXvxP58NJ+/rw4uP+AOHTooBimcLp2JZ7t86yfZ//ZTqX+kpi9Da/953jaHRgdvXvLY3/bl6gdsbDoZvRFOn99omsyPU6i21Gv6VrzzrbHmzO9F9c7m0BWBzunoWm8Z9P9hikep3rpt8xL0XhWV/JOAX542Zl4eWDBNQvEwkWLxaTJk+wsGmUpIsDheA8eOEh/B0RXJy3p2ph4fZ9d+fJ6vxNSRVlpzNrfLmHahjYnFAJig7+Ivk4z/2s01KPFY7pWQQjQQDaLWUIAuAJ+4/qH1hjC/CkdLrviVFY+8gOMlwU8HvtVlxxvYOGiRbG/yipEIMzKFyDNQkO0p5737R88sJ+s+U/brnJnFT+H7O3s7qUAPtlV98eR1ZAWjX87eZh2kSZgzVhNgObBP44QQkCcRJ68QgAYpyOX3btxoStq/JhOXTvOadsPseqS45KzS+FszWSmTJ0S0wrMJ+0ADAdt/wqMWyAPuqeaW8QBGvSPHT0mwpp89I9b+JiDwyMB2tPfRQ599MQIGFNUWm9dtIw2kcJyV5Y7QoZPq84SF10SAlbc94UJkZD3dcpjoUQ+md4CISBTYg6+HgJAgs5p/MQjfiMc+Cad/o0El9h+mH0HTGyoEf7iYtvLjhfI9gKz58wRCxcvErAXiFOx97WjvSM20z9Eav6hoSF7Cx9TWjgSEe2dPYKd+jgl0dh/eObUyQYZ/c13Sp001mPXubPnH+wZHvkFlWHH4B9vSkuFEb79tReebokfwGtuEoAAkKLflq9/aJMQ5rfpstIUl9p2uqK8VNSRl78iG5wIJWtUMQkiM2bOFNOmT4/9sedBJPUEAoGAOHO6VZwiRz2nWlpss+JP1BLeUdBN4Xq7ybo/Qu+dkuhh9kTUU/yl62fWlkaE91VaiLjOKXXTUY9wONJ1rKW1jzRBs3XknyjPCm/0g2c+dtBT6o3ca/zB+82JrsNx5xOAAJBGHzltSSBe5fIyf0wQcIpTk/Ly8kvCwLQZ0wV/RsqcAK/nnzlDA37LKdFKgz775s/2NjpuRSTCA3+/6O7tp3V+5wz8VLVhWg350t5tm5+I0/7il79Sn89CQDYH/2dvPTjH747yhKhFGOYqCAHxb13uvUIASLPPnLgkEK96Ge0U4K2DJcXOcurDGoG4doBf/X57HB3FueTKa5gs59vOnhWnacA/ffqUONd2zlEDLA02oqu3LxaxzykGfvG+NYVxwCPCG3Zu/f6B+LH4a74KARcHf3Lha86Jt9WOV575jxn840VCCIiTyMFXCAAZdpoTlwTiTWDf5iwIlNKrExOHK2ZBYDr9TZk2VfASQiEmnj2fa2uL+d7nWT4P/hFaT3da4i197MiH/fY7QQNxJR96eMVU/nuffSzhnsN8EwIcNvjHuwRCQJxEjr1CAJDoMKcuCcSbwpoAthEoK7XXh0C8/HRfOUhRTU21qK6pvfhaQ+9r8mbpYHR0VPR0d9Oafbfo6aFXet9D73t7ex054Mf7LUi7CXjg7xsYcuTAT/W8SuUfr/t4r/kiBJDRZdex5lanzPyvRA0h4EoiOfAZAoBkJzl5SSDeJLYNqK2udHLI03hVL3vlQEXV5IOAhQH+q+HXWvqjY04LYsQz4z5Sj8cGeB7oecDngZ7+hocTTkwva69TPowGg7SPv0/0D2ZvZ0EqFslU/snuzXUhIFuDf01x5NDPbz407eKafzLEfA5CQCpCDjsPAcBihzh5SSDeNN4twIJAPuyLLiPDQtYaVFRUUihln/DSH7/G//hzEQk+lx338ufkzh15HT5EA2CQDPCCsdegCIX480d/F85f+MxudXmg73P4bD7+HUj2OhIYjc34B2x0FZysPonOpaPyT3QvH89VISBbg/+EsujxH/1+aHbp+W5DNKftURJCQLIvocPOQQBQ0CFOXxKIN5GDDNVUVgjeRpjDQVHizcn4dayQwM6VeHCPD+oOs2rPuG2Z3sCai8GhEdHTPyCGshylL426Z6TyT5ZfrgkB2R78/SWu2BhhsAAAISDZVysnz0EAUNRtubAkEG8qexNkQ8HKijLBEQiz5V0wXh+82keAZ/vsuKef1vedtIc/CYH9bhH53HhW/knuSXoqV4SA7A3+kWM/+v3wnPjgH4cJISBOIn9eIQAo7kuOJUCOg75FYOcpzlpLdjwTriB/Arw8wLsIkPKPQIgi8vGgz0Z9bOCXI2mEfkdfGykL/P3+LVuCquvsdCHAaYN/nD+EgDiJ/HiFAKChH+eu/3JRpej7Y4L7Fcre2ab4Y9rv9XhIECiNCQO+FGvmY27DWwcS4Nn9ABnz9fUPiWHyJJhbyXjWYxq/qzvy3Bf+6NE6TzD6KrFRFjpXBWce/I+3tPaQz4W5KvJLN48JZePP/K+8H0LAlURy9zMEAI19d+OajbOiHuObFJ7zXo3FaMm6pKiIlghKYzsI2P8/kvMJ8Lo+r+fzTJ8N+py4dz8ZRXLd22yYxu/t2fbEM8muU3nOaUJA1gb/Uhr8/+BqtX8i1hACEpHJreMQAGzor+X3bPokCQH/QkXNsKE4pUXE7AXI0yBrBmAvoBStsswoNGxspt9HM34nOhRKo6Gs4v8Hb9nIX+3YsoVU//amTb/9lVrT5WVNwBJ7S768tFwZ/OO1hhAQJ5G7rxAAbOo7NhIUoZGv0oD6R1Skz6ZilRbD9gJsPFjqLyZ7gZKsByNS2rgcyowH+SEKwctheIeGA7m0rn81ZUO8Qn6Pf2fPtqcOX33SviMsBEQN7ytkH3uDfaV+VFKuDf7xmkMIiJPIzVcIADb3W+Oah69xuaP/RurO1TYXrbw43kroJ2EgJhSQQMDbDJHUE+AtimMHfHbYkwfpLD18/nD31s0/ckpbfvMPHq0ZDUVftVsI4MGfPPx105KNrYbDMd/+dx6bW7J8il+UyM9JIAQ45RuceT0gAGTOTMkdy9c99AWKpPUNymySkgwdkAkbEV7QDrBQUCI8HtgOyHRLlNbyR3h2z7N8muGPkIo/j1KYvvffLPJ4/9+3nvnugNPaxUJAMBx9heq11I66kTan62i2Bv94VL8ijzBvmE7myhAC7OhzJ5UBASCLvbFi/QMVYeH+S+qE36Fq5N1oyTsJWDvA2wv5FcaE43/Z2FiP9+fHZ/n8PtcM+MZv2VVH34pS2N53t23+4KozDjpwUQh4maq0TGe1HDH4xxsIISBOoqBeIQA4oLtvXPvgkqjL9e9UlZUOqI62KnBsAv7zka9/Fg6K6JWXDQrJERGH1uW9+KPscvjiK8/2edafx6mT+viPd7/wxOPUxpxo6P2/9afVbo+PNQFahABHDf7xLx6EgDiJgnmFAOCcrjYa123aROuPX6Uq2br/N5sIePDnpYO4QODz0fuLAkKuuivmwTwWU4AGeH4dvfgaJIc8BeZymPYiiv/wmt6v7XjxO93Z/J7JlH1RCGBNQKPM/YnuceTgH68shIA4iYJ4hQDgsG7esGGD+8RQyecNU/wZVW2xw6pna3XctOuABYO4QOAjbQEHNuKlBN6R4CLhIRuJ1fPkpCXmSjfEs/gxAzwP+CEKLFTgqU8I41vm/9/e3QfJTd93HP/+9vb8dD472IZgKLZ5KIZmkhoMpiQlPUgHm5RAhgxpJvUDLRnaCR0SkzTMJJmp0wFSMkkgDTMt/FNqaCm40+KQloeh5uikgQBnXxnc4Ab8/BCwje07P935dn/96ozsXXl3Je1KOkn73pkbraSfpN/v9Vtbn5W0UnH4gb6nHw/8FJk0mt3y1RUfKpXKTgi4LIr6OTt/veBvr4bEC6NYX9B1jF7w557z91uIEOAnlJv5Y/M/aG74Ym2ImX/d4huNFL6lW4nkP59YaztGK3eCgBMUCvrMEjcUjA59pjkffOebuvON3NmZHx/q+4ppzt30Tsy3J9/n9Px8FD2oO3v7gD028cG+Fx7WEJCPV1QhIBM7f7fLCAGuRK6HBIAMdO+li5Ys1J3ct3THc1UGqksV209gp1jzfds5/qG+px8+nMfmfxACnte2Xd5M+zK183cbSAhwJXI7JABkqGsvXbj4qtEgILIwQ9WmqnkVMLJJynLffjP1kbef+XGufqtYq8tuvu2uqRPGj3dCwIJa8+tNy+TO320MIcCVyOWQAJDBbl3w6SWXla1zasDeqNWnDzPYh5muspG39Bv/dycf2fJPvb29bXXBw2gIGDf+Of1Xd0WQPjy+89+2R88yzQ1SPqoyoc75+22UEOAnlNn57Dwy23V6LHLhso9IwX5Tf1f1h9qM3N1HIMNdk9eq92vD7nn9ivP+VVasKOe1kX7tChoCcrHzdzEIAa5EroYEgBx0p54auKDDFO6yRpZpczpz0CSakC6Bl23Z3NP33D/8e7qqNXa18QsBudr5u8yEAFciN0MCQG66Uo8IXPvH50ix9GW9kH2xNus3ctQ0mpK8wFHd5Gqxhb97/dlHepPffPq3WC8E5HLn73YHIcCVyMWQAJCLbvQ0YsWKwuUvb7zGFuwSvUTgczq3y1OCUQRqCVi9MdPPymJXyvCEVXn6KV+txkYxzRsC9J4Be97ZvG1PydqLolh/0HVEes7fb6OEAD+hzMwnAGSmq5qr6MeuXdKlN9e7SYPAUr0rm/MEwkJza2KpHAu8rdeRrOwo2cdeff7RTTluZyxNc0OA3jfi/Nzv/F1BQoArkekhASDT3Reu8ldev/Ts4ZJzesAsNWJ/K9zSlM6TgP7D32fFPFGwduWrz658OU9tG4u2LPrCV+fsHdj3jN6rI7/f/L2whACvSObGCQCZ67JoKnzpHyybb8p2iX4AvqhrPD2atbKWlAsc0/o9o09fWrnfTvlpO/x2P4n+uHLhrdOOFY69oNtK5BHCbpsSPezvbtQ7JAR4RTI1TgDIVHdFX9menp7iwKRZizr0qIB+e7lBtzA++q2wxrEVsK/pt/1HpXjs8azfm39sHU/delvv/F2OKELAJr2L9JbAj43YIsb2mOX9m90qMGxOgADQnFsul5r32Vs+1DlkP683OVmsYcB5NHExlw1ti0bZjfprkCek3LGy7/lH3mqLJifcSHb+FeCEgAqM7LwlAGSnrxKt6Sdu+JPuo0OlTxpjr9FA4Fw8+Nv6x+cl0V4ItbGdVuyLRsyaoi2seeXZRzaHWprCoQTY+dfgIgTUQEn3JP5DT3f/pKZ2Cz61dLrttL9npaCBQEOByMWpqVx7VsQ5Xtqrh/bXGFta8/qzj21oT4bkW93Tc8uEgxPLvbrlQLcDjqqGqTjn79cYQoCfUKrmEwBS1R3Zqcz8hYtn6nN4r9ZvnBoGNBBYOTc7tc9kTQf0AMxL6vxiQXf4rz732BvaCv31Hq+EBcxl1y19XLfp3H47sVcmdv6uBiHAlUj9kACQ+i7KRgV/Z9Etc0oFe7UehnbCgHOE4Kxs1Dy1tdTH6pr/1msx9Bu+rDl3ypG+VatWlVJb2zap2PxFy+7Q02I/SrK5mdr5uzCEAFci1UMCQKq7J7uVu2zR4rnWdFxjpDxPd2RztSXO35nZbVGsNT+kRhv01MoGvef+/xYK8l+Huw6/sn7VquFYt8rKQwlccd0fTSlJx0ZdaHqoBVsonMmdv9teQoArkdohASC1XZO/ijn/gZZtpwaB8lx9iqEOC3P1G64TDH5T/ybmr8VVLSrrJZRbpKw7eaM7e93hWylvGN9hNrz805U7qkoykkqBy65bdreeddHHcCfzyvTO3yUiBLgSqRwSAFLZLW1XKXPJp784qzAaDuxcY/WIgRMQjj9D3XmoUZY+p/u1vrqDt6M7eb3pjn6zL2+YfKjj7d7eR5wH7PDKpoBz7t8JajOTqH4udv4uFCHAlUjdMEv/saYOjwrFLzD/M7dNKpSGL9Qd6oX67XlG2Ui3XnjYbUy521rTrdOnaD7QoXj/dHrT9zFwLq47qH+DGj0GxNpB3eag/q5+UJ+kMKjn5Af16vtBPZIxYG1Bh/aAteWNI9ZseOP5R9/T5XjlTGDBoqVX6mfv50k0K1c7fxeMEOBKpGpIAEhVd1CZKAWcn2sdmGi6iwUNDCPD3SMiUwrGCQ9OYDBFZ4duO+xgh+7gdXxAn+Q2eHRoaHB97yo9J88V9lH2RdbXpd/+79E2fDPuduRy5++iEQJcidQMCQCp6QoqggACaRWYv2jpE8bI5+OsX653/i4cIcCVSMWwkIpaUAkEEEAgxQK684/1Z61tsfN3+ndoREz/VpEjzf/AxZ47Q2S2/gV7zRZreu398+YEK95epQgA7dXftBYBBJoTOKO5xfyXapudv0sRWQgI/GtMQoBr7xkSADwgjCKAAAI1BPbWmNbypLbb+btikYQAfYr5bEKAS9rMkADQjBrLIIBAuwlEfq+Gtt35u58cQoArMWZDAsCY0bNhBBDIjoBx7gAY2avtd/6uJCHAlRiTIQFgTNjZKAIIZElAb2n9H1HVl52/R5IQ4AFJbpQAkJw1W0IAgYwKzJl89GdadecRzC292PnX4SME1IGJdzIBIF5f1o4AAjkQOP4kRvNYK01h5++jRwjwAYp+NgEgelPWiAACORQoSeFebZbeNTL8i51/QDNCQECoaIoRAKJxZC0IIJBzgXXP/P1uff7E98I2k51/SDFCQEiw5osTAJq3Y0kEEGgzgfO6D39Xm/x80Gaz8w8q5SlHCPCAxDPKswDicWWtCCCQU4H5v3/bVNN59GVt3sWNmsjOv5FOwHmRPDtgt8iWwPdx2iLG9pjl/ZsD1jDTxTgCkOnuo/IIIJC0QN8LDx/okNK1ut136m2bnX89mZDTORIQEixccQJAOC9KI4AAAvKLZ/5xuyl1XK1PjT7lBkHs/CP+gBACIgY9uTpOAZy04B0CCCAQSmD+Z5bOMiXpFSvnOguy8w/FF64wpwPCeQUoTQAIgEQRBBBAoJ6AEwJkRF6a2lkeePqqX54/qaPcVa8s01sUIAS0CFi9OKcAqj0YQwABBEIJ9D29cutUM9Lzk9/9ZZGdfyi68IU5HRDerMESHAFogMMsBBBAIKiAvX/eHLGmV8vPDroM5ZoU4EhAk3DVixEAqj0YQwABBJoWIAQ0TRd+QUJAeDPPEgQADwijCCCAQCsChIBW9EIuSwgICVZdnABQ7cEYAggg0LIAIaBlwuArIAQEt/KUJAB4QBhFAAEEohAgBEShGHAdhICAUNXFCADVHowhgAACkQkQAiKj9F8RIcDfyFOCAOABYRQBBBCIUoAQEKWmz7oIAT5A1bMJANUejCGAAAKRCxACIietv0JCQH0bzxwCgAeEUQQQQCAOAUJAHKp11kkIqANTPZkAUO3BGAIIIBCbACEgNtpTV0wIONXEM4UA4AFhFAEEEIhTgBAQp65n3YQAD0j1KAGg2oMxBBBAIHYBQkDsxCc3QAg4aeF5RwDwgDCKAAIIJCFACEhC+YNtEAJqYhMAarIwEQEEEIhfgBAQv/GJLRACTlC4bwgArgRDBBBAYAwECAEJohMCqrAJAFUcjCCAAALJCxACEjQnBJzAJgCcoOANAgggMHYChIAE7QkBo9gEgAQ/c2wKAQQQaCRACGikE/E8QoAQACL+TLE6BBBAoBUBQkAreiGXbfMQQAAI+XmhOAIIIBC3ACEgbuGK9bdxCCAAVHwOeIsAAgikRYAQkGBPtGkIIAAk+BljUwgggEAYAUJAGK0Wy7ZhCCAAtPiZYXEEEEAgTgFCQJy6nnW3WQgoeJrPKAIIIIBAigTM8v7NYmyPVmlLiqqVz6oMjYjp3ypyZLjp9tlzTxeZNT3o8rPFmt7RkBd0iQjLcQQgQkxWhQACCMQlwJGAuGRrrDeKIwEbd4ts3Vtj5TUnbXFC3mjYqzk7nokEgHhcWSsCCCAQuQAhIHLS+itsgxBAAKjf/cxBAAEEUidACEiwS3IeAggACX6W2BQCCCAQhQAhIArFgOvIcQggAAT8DFAMAQQQSJMAISDB3shpCCAAJPgZYlMIIIBAlAKEgCg1fdaVwxBAAPDpc2YjgAACaRYgBCTYOzkLAQSABD87bAoBBBCIQ4AQEIdqnXXmKAQQAOr0MZMRQACBLAkQAhLsrZyEAAJAgp8ZNoUAAgjEKUAIiFPXs+4chAACgKdPGUUAAQSyLEAISLD3Mh4CCAAJflbYFAIIIJCEACEgCeUPtpHhEEAASPBzwqYQQACBpAQIAUlJ63YyGgIIAAl+RtgUAgggkKQAISBB7QyGAAJAgp8PNoUAAggkLUAISFA8YyGAAJDgZ4NNIYAAAmMhQAhIUD1DIYAAkODngk0hgAACYyVACEhQPiMhoJAgCZtCAAEEEBgjAbO8f7MY26Ob3zJGVWifzQ6NiOnfKnJkuOk22/NOF5k1Pejys8XKf9oHFwRewFkxASAoL+UQQACBjAsQAhLswMRDgDlPho/9i31ofmfQVhIAgkpRDgEEEMiBACEgwU5MPARIjxwq/03QFhIAgkpRDgEEEMiJACEgwY5MPgT8mf3hvC8HaSEXAQZRogwCCCCQQwEuDEywU5O9MFAvQjALzfK1axq1kADQSId5CCCAQM4FCAEJdnCyIeB9GSksMN/oe6deCzkFUE+G6QgggEAbCHA6IMFOjup0wJlTg1R6mhTL/2ZX9BTrFSYA1JNhOgIIINAmAoSABDs6ihBw4ZkiUycGqfRHZcqBL9UryCmAejJMRwABBNpMgNMBCXZ4q6cDhvU0f5/e0mHomF+l35XxwxeY29cf9BbkCIBXhHEEEECgTQU4EpBgx7d6JGBcUexHzxbp8N2Nf1iOjv96rZZxBKCWCtMQQACBNhbgSECCnd/qkYDdg2LW7/Cr8CEZKV5gvvHarysL+kaHysK8RwABBBDIvwBHAhLs41aPBJzeLTLT96LALimO/KW3VQQArwjjCCCAAAJCCEjwQ9BiCLBz9LkBBd8D+l+yD3xsbmWrCACVGrxHAAEEEDghQAg4QRH/m1ZCgJ5GkLNP86tjUcqFv6osRACo1OA9AggggECVACGgiiPeEScE/M82keFS6O1Y58mBxQ6f5cwN+rCgSW4hAoArwRABBBBAoKYAIaAmSzwTjx7Ti/q2i5RtuPV3doidNc1vmQlyuHStW4gA4EowRAABBBCoK0AIqEsT/YwDR8T86t3w63VOA+jPAxu/Cje68wkArgRDBBBAAIGGAoSAhjzRzty1X2Sn/oV5OfcE8LtNsLXX2ydvHj1XQAAIg0tZBBBAoM0FCAHJfQDMpt0iI+VQG7QzJvuVnyHb3/m4U4gA4EfFfAQQQACBKgFCQBVHfCPHSmK27Q23/m59RsA4v4sB7ehpAAJAOFpKI4AAAgioACEgoY/B9n36q4CR4BtzbgcwzfcowGgA8L1zQPCtUhIBBBBAoN0EuG1wAj1+zjSx558RfEN79PbAb/rcHtgUz+cIQHBSSiKAAAIIeAQ4EuABiWNUd+ihXqd1BbgzYGkOASCUKoURQAABBLwChACvSMTjR/SRv4eHg6/U+TVA9wSf8uWZBAAfImYjgAACCPgLEAL8jVoqEfYogN/9AKycRQBoqUdYGAEEEEDAFSAEuBLRD837h8Kt1C8A6DMECQDhSCmNAAIIINBAgBDQAKeVWXqL4DAv6xcAjOEIQBhQyiKAAAII+AsQAvyNQpcI81NAZ+V+AaDMEYDQfcACCCCAAAL+AoQAf6NQJZyHA+mNgQK//G4GZLgGILAlBRFAAAEEwgkQAsJ5+ZYOcxTA7wgA1wD4clMAAQQQQKAFAUJAC3jeRU2Ie/f5P024xEWAXmDGEUAAAQQiFSAERMTpd1i/cjO+RwvMLgJAJRjvEUAAAf/IO0QAAAZKSURBVARiESAEtMha0G//Rb+H/FRswzcAyE4CQIUXbxFAAAEE4hMgBLRgO74YamHjGwAsRwBCiVIYAQQQQKAlAUJAk3wTx4VbcMj3CYIEgHCilEYAAQQQaFWAEBBe0E73fcRv9Ur9jgBYTgFUgzGGAAIIIJCIACEgJHPYADDkc+fAgnAEIGQXUBwBBBBAICIBQkBAyK7xIhM6AxbWYs4Ngw4NNS7PEYDGPsxFAAEEEIhXgBDg72vP6PYvVFli70ERv/sA2OJGfgVQicZ7BBBAAIHEBQgBDcg79ad/Z09rUODUWWaPBoBGL2veNF97bRsBoBES8xBAAAEEEhEgBNRmtrOn6+//Q+yqnWcG7PN5dLCxTzlbC7HW2pVjKgIIIIAAAlEIEAI8is55/7NO80z0Gd1/WKRUblyobAgAjYWYiwACCCCQtAAh4KS4veDD+jU9xP3/dVGzZ/DkCmq/22a+vrbPmcURgNpATEUAAQQQGCMBQoBewzdnhsiMkL/9d67+f2/Ar9dWuwUIAK4EQwQQQACB1Ai0dQg4Xa/6dwJAyJfZuldkxOfwv5XRw//OqgkAIYEpjgACCCCQjEBbhgD9zb+9aGZ4YOfWvzv2NV7OyD4ZnPqSW4gA4EowRAABBBBInUBbhQBjxF6sO/+O8Ltms3mPiPMLgMavfzYrek88JCD8VhqvnLkIIIAAAghEKtA2IeAc/b3/5Anh7Q4Pi/z6gN9yh2VY7q4sRACo1OA9AggggEAqBdohBNhpXU3Zm0279apBv2//5gFz17qdlRsgAFRq8B4BBBBAILUCuQ8Bk/We/2FfO/eL7Pb96d8eKXbe5101AcArwjgCCCCAQGoFch0C/K7g9/aK3vTH/Opd79Qa4/Zuc8cvTvl9IAGgBhWTEEAAAQTSK5DbEHDQ5wl+lV1y9JiY9TsCHPqXTTJw7G8rF3XfEwBcCYYIIIAAApkRyGMIMDt9fsbn9o7e6te8uf34Y3/daXWH9ttmxXq9SvDUFwHgVBOmIIAAAghkQCB3IeB9fYjPLj2n7/Myb+0SCXa04OeyvP/xeqsjANSTYToCCCCAQOoF8hYCzP+9K2ajXtVf6zf9R4bF9G8NctGf0287ZKT4OefWAvU6MdxTBuqthekIIIAAAgiMoYC9f94csaZXqzB7DKsR3aadJwGe1iW2W+8LoPf4N4NHRd4/WDsYnLrVI1I2V7kP/Tl19vEpBIB6MkxHAAEEEMiUQO5CQLP61nzBfG3tE36LcwrAT4j5CCCAAAKZEMjb6YCm0I29J8jO31k3RwCaEmYhBBBAAIG0CrTtkQBrnpI7197U6Lx/ZZ9xBKBSg/cIIIAAApkXOHkkwG7MfGMCN8CskwlDS4Lu/J3VEgAC41IQAQQQQCArAqMhYNy4BVrfE4+/zUrdm6jnahk/9Elz+3q9SjD4i1MAwa0oiQACCCCQMQH70PxOOVz+sf4Y7k8zVvWA1TX3yvK13w7zzd9dMQHAlWCIAAIIIJBbAXv/pbfrE/Me0AYWc9LII3oV361m+bq6N/rxaycBwE+I+QgggAACuRCwP7jkU7rTfFIbMy3jDdKHAMhnzZ3rXm+lHQSAVvRYFgEEEEAgUwL2h5deoE/QeUor/ZFMVfxkZV8RU7jJLO/bdXJSc++4CLA5N5ZCAAEEEMiggLlz7dvSVbhEjPlzrf57GWrCVr2OYZkMrPtEFDt/p90cAchQ71NVBBBAAIHoBOx9c7ulOOkvdE94p661K7o1R7qm93Vt90px8EFzx9shnhfsXwcCgL8RJRBAAAEEcixgv3f5mdI5skK/Yd+qzUzLRYJHNZj8SE9X/LX+pNH/EYFN9A8BoAk0FkEAAQQQyJ+A/f78i6RQ+o4eHL9BW6dP4RmT14AGkSels/Qdc8cb2+OsAQEgTl3WjQACCCCQOQG9d8AkOVy6Vu+Vd6P+dPB6bcCMmBuxQ7/t/0SvS1gt+4deNCvWD8e8vdHVEwCSUGYbCCCAAAKZFLBP3twh29/5uB6Kv1Eb4PzprwgieFnzphTKq3XHv1q+0v96MzfyabUWBIBWBVkeAQQQQKBtBOz9l58nUpojUp6ph+rP0obP1G/uZ0nZGX4wrgX0NILzM72dGhyc4S4tu1Nvvn982FHYZL7St1Wnj+nr/wFNKWk1E2L03QAAAABJRU5ErkJggg==;shadow=1;fontFamily=Verdana;" parent="1" vertex="1">
          <mxGeometry x="1470" y="-760" width="102" height="102" as="geometry" />
        </mxCell>
      </root>
    </mxGraphModel>
  </diagram>
</mxfile>
